<?xml version="1.0" encoding="UTF-8" standalone="no"?>
<!-- Created with Inkscape (http://www.inkscape.org/) -->

<svg
   width="56.824944mm"
   height="53.548248mm"
   viewBox="0 0 56.824944 53.548248"
   version="1.1"
   id="svg497"
   xmlns="http://www.w3.org/2000/svg"
   xmlns:svg="http://www.w3.org/2000/svg">
  <defs
     id="defs494" />
  <g
     id="g13881">
    <path
       fill="#20201e"
       stroke="#20201e"
       stroke-width="0.703041"
       d="m 14.594755,6.7601843 c 0,0 0.91424,-4.9126671 0.91424,-5.5988064 0,-0.6848622 0.684836,-0.7991181 1.370536,0.1150677 0.685673,0.9142155 3.769909,5.3693739 3.769909,5.3693739 l -6.048739,0.1071378 z"
       id="path5121"
       style="fill:#000000;stroke:#000000" />
    <path
       fill="#20201e"
       stroke="#20201e"
       stroke-width="0.703041"
       d="m 55.581974,44.445316 c -0.310236,-2.21555 -0.73353,-4.32723 -1.248974,-6.33593 l -1.655804,-0.660707 1.105741,-1.321422 c -0.630116,-2.12455 -1.362052,-4.123607 -2.166012,-6.003162 l -1.566071,-0.443441 0.773755,-1.324224 c -0.841391,-1.788187 -1.745568,-3.455684 -2.683861,-5.008429 l -1.460269,-0.293337 0.523482,-1.205959 c -1.051865,-1.623174 -2.132648,-3.10564 -3.205363,-4.451189 l -1.545558,-0.169389 0.41284,-1.203899 c -1.253845,-1.47311 -2.476277,-2.754734 -3.607323,-3.849585 l -1.546795,-0.08692 0.270002,-1.107731 C 35.223822,8.4844277 33.275116,7.2699848 33.275116,7.2699848 l -3.50357,1.0659528 c 0,0 -1.67512,-0.9142353 -3.046468,-1.827639 0,0 -0.913403,-3.0464379 -1.217977,-4.722399 C 25.202102,0.1107899 24.288698,0.8725058 23.984115,1.3291928 23.67869,1.7858996 20.518366,5.289866 20.518366,5.289866 c 0,0 -1.890428,-0.2595285 -3.236316,0 -1.979698,0.3810708 -2.894331,1.7137494 -5.179499,3.8846115 -1.666289,1.5825445 -2.665817,2.9707915 -3.2367361,4.4551385 -0.5709716,1.485158 0.1134718,1.485158 -0.1138639,2.855665 -0.2293523,1.371348 -6.3983215,11.652478 -7.0831302,12.909204 -0.68687882,1.256221 -2.34104012,5.100549 0.9134017,7.53982 0.9134027,0.686456 1.6002816,1.028442 2.1704661,1.257063 0,0 0.9142413,-0.228572 1.2562269,-0.684863 0.061162,-0.08207 0.092545,-0.131996 0.1074466,-0.15934 0.011266,-0.03217 0.016899,-0.03217 0,0 -0.035026,0.0893 -0.1146766,0.423314 0.2357963,0.844173 0.5709706,0.686456 1.30492,0.634966 1.7141711,0.686456 0.6087946,0.07564 1.7129406,-0.457915 2.6271805,-1.828451 0.914634,-1.37208 1.485578,-1.828451 2.170859,-2.628311 0.684863,-0.799138 4.466008,-2.568813 5.941188,-5.026547 0.342432,-0.569765 1.141917,-0.342045 1.71294,0.114672 0.570972,0.457498 3.77033,0.571784 5.140836,-1.71375 0,0 0.647856,6.009181 -2.056576,10.167498 -4.454795,6.854196 -11.994483,8.567114 -14.280463,14.966088 H 56.1893 c 0,-2.211492 -0.116276,-4.332844 -0.327522,-6.374571 l -1.557191,-0.823264 1.303682,-1.285564 z"
       id="path5123"
       style="fill:#000000;stroke:#000000" />
    <path
       fill="none"
       stroke="#ffffff"
       stroke-width="0.703041"
       d="m 31.44716,9.8587259 c 0,0 19.953431,14.9290221 19.953431,41.8887511"
       id="path5125"
       style="stroke:#e6e6e6;stroke-width:1.32291667;stroke-miterlimit:4;stroke-dasharray:none" />
    <path
       fill="none"
       stroke="#20201e"
       stroke-width="0.703041"
       d="m 6.1149732,37.168688 c 0.016474,-0.02475 0.016474,-0.02475 0,0 z"
       id="path5127" />
    <path
       fill="none"
       stroke="#ffffff"
       stroke-width="0.703041"
       d="m 27.334997,20.217383 c 0.38026,4.264445 -1.600275,7.310487 -1.675921,7.577222 0,0 4.798768,-2.474208 5.25588,-5.750425"
       id="path5129"
       style="stroke:#e6e6e6;stroke-width:1.32291667;stroke-miterlimit:4;stroke-dasharray:none" />
    <path
       fill="none"
       stroke="#ffffff"
       stroke-width="0.703041"
       d="m 25.662135,27.790675 c 0,0 3.198918,1.562042 5.559731,0.571785"
       id="path5131"
       style="stroke:#e6e6e6;stroke-width:1.32291667;stroke-miterlimit:4;stroke-dasharray:none" />
    <path
       fill="none"
       stroke="#20201e"
       stroke-width="0.703041"
       d="m 6.0078413,37.333503 c 0,0 2.1330352,-2.743458 2.7430356,-3.999679"
       id="path5133"
       style="stroke:#e6e6e6;stroke-width:1.32291667;stroke-miterlimit:4;stroke-dasharray:none" />
    <path
       fill="none"
       stroke="#ffffff"
       stroke-width="0.703041"
       d="m 19.151891,12.026044 c 0,0 -3.512791,0.01772 -4.684149,1.941538 -1.599443,2.628332 0.228147,2.970396 0.228147,2.970396 0,0 1.828062,0.572171 3.084681,-1.141915 1.337898,-1.824422 0.228566,-2.970396 0.228566,-2.970396 l 1.137228,-0.799356 z"
       id="path5135"
       style="stroke:#e6e6e6;stroke-width:1.32291667;stroke-miterlimit:4;stroke-dasharray:none" />
    <path
       fill="none"
       stroke="#ffffff"
       stroke-width="0.703041"
       d="m 2.1264255,31.391899 c 1.2570644,-0.342045 2.0565756,-0.229353 2.6267611,0.115097 0,0 -0.5701855,-1.714571 0.4567147,-3.199729 1.0292565,-1.485158 2.7430356,-1.599048 4.2274357,-4.455139"
       id="path5137"
       style="stroke:#e6e6e6;stroke-width:1.32291667;stroke-miterlimit:4;stroke-dasharray:none" />
    <line
       fill="none"
       stroke="#ffffff"
       stroke-width="0.703041"
       x1="35.485134"
       y1="13.633009"
       x2="37.652481"
       y2="12.256789"
       id="line5139"
       style="stroke:#e6e6e6;stroke-width:1.32291667;stroke-miterlimit:4;stroke-dasharray:none" />
    <line
       fill="none"
       stroke="#ffffff"
       stroke-width="0.703041"
       x1="39.940109"
       y1="18.544519"
       x2="42.110733"
       y2="17.514427"
       id="line5141"
       style="stroke:#e6e6e6;stroke-width:1.32291667;stroke-miterlimit:4;stroke-dasharray:none" />
    <line
       fill="none"
       stroke="#ffffff"
       stroke-width="0.703041"
       x1="43.937725"
       y1="24.238876"
       x2="46.45116"
       y2="23.208784"
       id="line5143"
       style="stroke:#e6e6e6;stroke-width:1.32291667;stroke-miterlimit:4;stroke-dasharray:none" />
    <line
       fill="none"
       stroke="#ffffff"
       stroke-width="0.703041"
       x1="47.138443"
       y1="30.765602"
       x2="49.763973"
       y2="29.850861"
       id="line5145"
       style="stroke:#e6e6e6;stroke-width:1.32291667;stroke-miterlimit:4;stroke-dasharray:none" />
    <line
       fill="none"
       stroke="#ffffff"
       stroke-width="0.703041"
       x1="49.650238"
       y1="38.421303"
       x2="52.392784"
       y2="37.621929"
       id="line5147"
       style="stroke:#e6e6e6;stroke-width:1.32291667;stroke-miterlimit:4;stroke-dasharray:none" />
    <line
       fill="none"
       stroke="#ffffff"
       stroke-width="0.703041"
       x1="51.136063"
       y1="46.184109"
       x2="53.991489"
       y2="45.84623"
       id="line5149"
       style="stroke:#e6e6e6;stroke-width:1.32291667;stroke-miterlimit:4;stroke-dasharray:none" />
  </g>
</svg>
