<?xml version="1.0" encoding="UTF-8" standalone="no"?>
<!-- Created with Inkscape (http://www.inkscape.org/) -->

<svg
   width="34.70256mm"
   height="52.331062mm"
   viewBox="0 0 34.70256 52.331062"
   version="1.1"
   id="svg971"
   xmlns="http://www.w3.org/2000/svg"
   xmlns:svg="http://www.w3.org/2000/svg">
  <defs
     id="defs968" />
  <g
     id="layer1"
     transform="translate(-87.57343,-122.62115)">
    <path
       stroke="#000000"
       stroke-width="0.650731"
       stroke-linejoin="round"
       d="m 111.47204,166.95977 c -3.09028,-6.13468 -2.77803,-17.06255 -2.51967,-21.29667 4.88733,-0.33517 8.4023,-1.26068 8.4023,-2.35152 0,-1.07073 -3.38326,-1.98289 -8.12895,-2.33298 3.03073,-1.56202 5.10462,-4.7195 5.10462,-8.36357 0,-5.19559 -4.20974,-9.40686 -9.4052,-9.40686 -5.195488,0 -9.405216,4.21138 -9.405216,9.40686 0,3.64399 2.074703,6.80144 5.104576,8.36357 -4.744882,0.35009 -8.129691,1.26224 -8.129691,2.33298 0,1.09084 3.51685,2.01635 8.403131,2.35152 0.25914,4.2347 0.57137,15.16222 -2.518889,21.29667 -6.056676,1.21757 -10.306743,4.07614 -10.306743,7.40542 h 33.704812 c 0,-3.32928 -4.24401,-6.18882 -10.30095,-7.40849 z"
       id="path5087" />
  </g>
</svg>
