<?xml version="1.0" encoding="UTF-8" standalone="no"?>
<!-- Created with Inkscape (http://www.inkscape.org/) -->

<svg
   width="58.979424mm"
   height="52.806786mm"
   viewBox="0 0 58.979424 52.806786"
   version="1.1"
   id="svg881"
   xmlns="http://www.w3.org/2000/svg"
   xmlns:svg="http://www.w3.org/2000/svg">
  <defs
     id="defs878" />
  <g
     id="g13384">
    <path
       stroke="#000000"
       stroke-width="0.70304"
       stroke-linejoin="bevel"
       d="m 57.990968,14.135351 c 0.700944,-1.203158 0.296146,-2.746651 -0.906985,-3.448014 -1.200669,-0.7017572 -2.744267,-0.296147 -3.445971,0.906565 -0.601959,1.030934 -0.387904,2.310053 0.44181,3.09673 -3.43311,4.162239 -9.697765,11.754655 -11.211606,13.595657 C 42.42397,28.088316 41.963641,27.89959 41.485657,27.722966 41.620843,26.311804 42.613141,15.534018 43.140238,9.8025378 44.283804,9.8287054 45.338051,9.0714179 45.637445,7.9161426 45.985901,6.568186 45.17633,5.1932237 43.82916,4.8439824 42.480391,4.4955269 41.105822,5.3051234 40.756606,6.6526608 40.458024,7.807098 41.011707,8.9808399 42.024934,9.5140399 39.542238,15.147373 34.724919,26.083787 34.712896,26.129128 c -0.0024,0.01087 -7.85e-4,0.02213 -0.0032,0.03298 -0.437803,-0.0527 -0.887707,-0.09817 -1.344761,-0.135998 -0.09173,-0.605992 -2.157606,-13.283322 -3.235164,-19.8858493 1.237785,-0.28931 2.160827,-1.3970699 2.160827,-2.723338 0,-1.5471338 -1.253843,-2.80136918 -2.801395,-2.80136918 -1.545982,0 -2.800558,1.25426148 -2.800558,2.80136918 0,1.3262681 0.92388,2.4340018 2.161561,2.723338 -1.071979,6.5725353 -3.124914,19.1639503 -3.232702,19.8751363 -0.479633,0.03782 -0.947192,0.0845 -1.405137,0.137203 -0.0032,-0.01569 -0.0024,-0.02897 -0.0072,-0.04385 C 24.193853,26.06367 19.37567,15.12626 16.89465,9.4928491 17.907013,8.9612994 18.460722,7.7871645 18.162166,6.6318892 17.812898,5.2846922 16.437517,4.475122 15.089587,4.8240227 c -1.346359,0.3488746 -2.156768,1.7242298 -1.807526,3.0713482 0.299368,1.1556159 1.352802,1.9125367 2.496395,1.8860024 0.526311,5.7255347 1.515387,16.4807667 1.654581,17.9154777 -0.469995,0.170207 -0.920658,0.353694 -1.358408,0.546034 -1.573328,-1.91251 -7.7684117,-9.421682 -11.1769782,-13.551153 0.8313111,-0.78665 1.0461784,-2.065796 0.444246,-3.09673 -0.7009447,-1.202738 -2.245302,-1.6083483 -3.4476213,-0.906565 -1.20150734,0.701364 -1.60711756,2.244883 -0.90533461,3.448014 0.60114661,1.029676 1.82122521,1.47311 2.91486671,1.136337 2.0497395,5.338391 8.6660184,22.520417 8.9189984,22.756947 h 0.0024 c 0.0048,0.02978 0.65508,4.291793 0.726719,5.704946 0.07161,1.405871 -0.54001,4.845503 -0.495742,4.86562 v 0.0032 c 7.85e-4,0 0.0016,-0.0016 0.0024,-0.0016 4.906639,2.297611 10.494631,3.589278 16.487342,3.589278 6.048582,0 16.966949,-3.698715 16.915871,-3.722839 -0.713832,-1.506508 -0.44422,-10.440253 -0.44422,-10.440253 0.252691,-0.239018 6.955567,-17.276821 9.059109,-22.755296 1.079523,0.337873 2.299182,-0.107133 2.900748,-1.137228"
       id="path4929" />
    <g
       id="g4935"
       transform="matrix(0.2619375,0,0,0.2619375,-103.91894,-48.670949)"
       style="stroke:#e6e6e6;stroke-width:5.05050505;stroke-miterlimit:4;stroke-dasharray:none">
      <path
         stroke="#ffffff"
         stroke-width="2.9123"
         stroke-linecap="round"
         d="m 451.2241,367.4442 c 19.6967,-8.1172 38.1338,-11.6012 60.7258,-11.6012 21.6971,0 39.065,3.5916 57.2242,11.1158"
         id="path4931"
         style="stroke:#e6e6e6;stroke-width:5.05050505;stroke-miterlimit:4;stroke-dasharray:none" />
      <path
         stroke="#ffffff"
         stroke-width="2.9123"
         stroke-linecap="round"
         d="m 565.4272,329.408 c -16.0224,-6.1569 -35.6515,-9.7793 -56.8561,-9.7793 -21.396,0 -41.1823,3.6869 -57.2809,9.9423"
         id="path4933"
         style="stroke:#e6e6e6;stroke-width:5.05050505;stroke-miterlimit:4;stroke-dasharray:none" />
    </g>
    <path
       fill="none"
       stroke="#ffffff"
       stroke-width="0.762841"
       stroke-linecap="round"
       d="m 44.690331,44.634515 c -4.645068,-1.534692 -9.373904,-2.648502 -14.698256,-2.648502 -5.424935,0 -10.652867,1.14595 -15.554503,2.736199"
       id="path4937"
       style="stroke:#e6e6e6;stroke-width:1.32291667;stroke-miterlimit:4;stroke-dasharray:none" />
    <polygon
       fill="#ffffff"
       points="500.4604,334.3159 509.3953,338.7834 518.3616,334.3159 509.3953,329.8484 "
       id="polygon4939"
       transform="matrix(0.2619375,0,0,0.2619375,-103.91894,-48.670949)"
       style="fill:#e6e6e6" />
    <polygon
       fill="#ffffff"
       points="554.9191,340.1362 545.3865,343.1249 537.2697,337.2732 546.8023,334.2844 "
       id="polygon4941"
       transform="matrix(0.2619375,0,0,0.2619375,-103.91894,-48.670949)"
       style="fill:#e6e6e6" />
    <polygon
       fill="#ffffff"
       points="463.9028,340.1362 473.4355,343.1249 481.5524,337.2732 472.0197,334.2844 "
       id="polygon4943"
       transform="matrix(0.2619375,0,0,0.2619375,-103.91894,-48.670949)"
       style="fill:#e6e6e6" />
  </g>
</svg>
