<?xml version="1.0" encoding="UTF-8" standalone="no"?>
<!-- Created with Inkscape (http://www.inkscape.org/) -->

<svg
   width="42.714123mm"
   height="55.6623mm"
   viewBox="0 0 42.714123 55.6623"
   version="1.1"
   id="svg4294"
   xmlns="http://www.w3.org/2000/svg"
   xmlns:svg="http://www.w3.org/2000/svg">
  <defs
     id="defs4291" />
  <g
     id="g12970">
    <path
       stroke="#000000"
       stroke-width="0.70304"
       stroke-linecap="square"
       d="m 40.854818,49.396753 h -0.798726 v -4.79804 l -3.844745,-4.305467 h -0.03903 V 14.895131 h 0.03903 l 5.002404,-4.784759 h 0.03177 V 1.9247199 c 0,-0.7154299 -0.555281,-1.29488807 -1.238912,-1.29488807 H 33.085987 V 5.078945 L 29.201769,6.3657392 25.62255,5.078945 V 0.62983183 H 17.092503 V 5.078945 L 13.512551,6.3657392 9.6287509,5.078945 V 0.62983183 H 2.7093575 c -0.6840498,0 -1.2384929,0.57943197 -1.2384929,1.29488807 v 8.1856521 h 0.014092 l 5.0201108,4.784759 v 25.398115 l -3.8451639,4.305467 v 4.79804 h -0.799538 c -0.7154299,0 -1.29528098,0.580244 -1.29528098,1.296434 v 3.044394 c 0,0.714618 0.57982488,1.294888 1.29528098,1.294888 H 40.853325 c 0.716242,0 1.2957,-0.580244 1.2957,-1.294888 v -3.044394 c 0,-0.708725 -0.580139,-1.293815 -1.296276,-1.293815 z"
       id="path4959" />
    <line
       fill="none"
       stroke="#ffffff"
       stroke-width="0.70304"
       stroke-linecap="round"
       x1="3.9270332"
       y1="49.396755"
       x2="38.504559"
       y2="49.396755"
       id="line4961"
       style="stroke:#e6e6e6;stroke-width:1.32291667;stroke-miterlimit:4;stroke-dasharray:none" />
    <line
       fill="none"
       stroke="#ffffff"
       stroke-width="0.70304"
       stroke-linecap="round"
       x1="4.079473"
       y1="44.600601"
       x2="38.352924"
       y2="44.600601"
       id="line4963"
       style="stroke:#e6e6e6;stroke-width:1.32291667;stroke-miterlimit:4;stroke-dasharray:none" />
    <line
       fill="none"
       stroke="#ffffff"
       stroke-width="0.70304"
       stroke-linecap="round"
       x1="34.697319"
       y1="40.298927"
       x2="7.4310145"
       y2="40.298927"
       id="line4965"
       style="stroke:#e6e6e6;stroke-width:1.32291667;stroke-miterlimit:4;stroke-dasharray:none" />
    <line
       fill="none"
       stroke="#ffffff"
       stroke-width="0.70304"
       stroke-linecap="round"
       x1="7.582655"
       y1="14.900787"
       x2="34.849766"
       y2="14.900787"
       id="line4967"
       style="stroke:#e6e6e6;stroke-width:1.32291667;stroke-miterlimit:4;stroke-dasharray:none" />
    <line
       fill="none"
       stroke="#ffffff"
       stroke-width="0.70304"
       stroke-linecap="round"
       x1="3.1655695"
       y1="10.112914"
       x2="40.179909"
       y2="10.112914"
       id="line4969"
       style="stroke-width:1.32291667;stroke-miterlimit:4;stroke-dasharray:none;stroke:#e6e6e6" />
  </g>
</svg>
