<?xml version="1.0" encoding="UTF-8" standalone="no"?>
<!-- Created with Inkscape (http://www.inkscape.org/) -->

<svg
   width="61.887547mm"
   height="57.746712mm"
   viewBox="0 0 61.887547 57.746712"
   version="1.1"
   id="svg497"
   xmlns="http://www.w3.org/2000/svg"
   xmlns:svg="http://www.w3.org/2000/svg">
  <defs
     id="defs494" />
  <g
     id="g14758">
    <path
       fill="#20201e"
       d="m 61.556318,54.964877 c -0.514652,-0.280873 -5.150079,-4.835863 -9.448897,-4.835863 -2.235242,0 -3.988047,0.674388 -5.533199,1.269902 -1.567635,0.603584 -3.047616,1.173319 -5.189897,1.173319 -2.49679,0 -4.569444,-0.762102 -6.399053,-1.434055 -1.4751,-0.540797 -2.749062,-1.009166 -4.052822,-1.009166 -1.30286,0 -2.576891,0.468369 -4.051991,1.009166 -1.828798,0.671972 -3.901929,1.434055 -6.398638,1.434055 -2.142675,0 -3.622649,-0.569765 -5.189899,-1.173319 -1.545562,-0.595544 -3.297951,-1.269902 -5.5327746,-1.269902 -4.2998878,0 -8.93550038,4.55494 -9.44970935,4.835863 0,0 1.87149105,-1.170933 3.61300795,-1.170933 1.7419367,0 3.2504086,1.221621 5.8369628,1.221621 1.3266872,0 2.4078872,0.416057 3.7775842,0.943163 1.7351,0.668745 3.893858,1.499246 6.945089,1.499246 3.366368,0 6.092902,-1.001098 8.083891,-1.731877 0.906147,-0.333154 1.933045,-0.710612 2.366843,-0.710612 0.435362,0 1.461428,0.377428 2.367575,0.710612 1.991375,0.730729 4.717518,1.731877 8.0843,1.731877 3.050497,0 5.210073,-0.830501 6.945088,-1.499246 1.368893,-0.527126 2.450478,-0.943163 3.778008,-0.943163 2.586138,0 4.54611,-1.221621 5.83613,-1.221621 1.290009,0 3.634191,1.17018 3.634191,1.17018 z"
       id="path4985"
       style="fill:#000000;stroke-width:0.261937" />
    <path
       fill="#ffffff"
       stroke="#20201e"
       stroke-width="1.08761"
       d="m 47.357451,27.020364 c 0,-7.708843 -6.577729,-19.9286996 -11.612116,-21.5809799 -0.175022,-0.057519 -0.355291,-0.1058211 -0.540402,-0.1444509 0.877962,-0.3255417 1.505751,-1.1677248 1.505751,-2.1591801 0,-1.2723876 -1.032085,-2.3032152 -2.303215,-2.3032152 -1.271557,0 -2.304453,1.0309365 -2.304453,2.3032152 0,0.88407 0.499752,1.6498152 1.230114,2.0368755 -1.032084,0.066825 -2.147131,0.3351744 -3.295908,0.7979202 -0.732748,-0.3331845 -1.461824,-0.5717844 -2.180108,-0.7025733 0.840143,-0.3432132 1.433322,-1.1689425 1.433322,-2.1322224 0,-1.2723876 -1.030927,-2.3032152 -2.303215,-2.3032152 -1.272282,0 -2.303216,1.0309365 -2.303216,2.3032152 0,0.8984943 0.51586,1.6759314 1.266678,2.0553192 -0.389921,0.043065 -0.77379,0.1239183 -1.149173,0.2482623 -5.02252,1.6526169 -11.453872,13.4201334 -11.453872,21.5809804 0,6.508181 2.636821,12.114788 5.680456,16.173353 0.453073,1.203157 1.141916,1.2385 1.290854,1.387406 3.93e-4,0 8.12e-4,-7.83e-4 0.0012,-7.83e-4 -0.0029,0.0201 -0.603164,3.92243 -0.661916,4.803649 -0.09053,1.358399 -0.227336,2.963139 -0.227336,2.963139 3.32087,1.460696 6.959594,2.308898 10.912446,2.308898 3.953763,0 7.413091,-0.930293 10.732808,-2.390157 -0.118295,-1.085644 -0.253895,-2.170466 -0.525502,-3.800085 -0.141629,-0.852262 -0.629323,-3.886988 -0.629323,-3.886988 0.148064,-0.147292 1.043767,-1.270744 1.043767,-1.270744 3.23039,-4.079206 6.386609,-9.518127 6.386609,-16.283787 z"
       id="path4987"
       style="fill:#e6e6e6;stroke:#000000;stroke-width:1.32291667;stroke-miterlimit:4;stroke-dasharray:none" />
    <path
       stroke="#000000"
       stroke-width="0.439138"
       d="m 20.401825,44.581499 c 2.693163,-1.160488 5.789891,-2.177703 9.80243,-2.177703 4.011371,0 7.106864,1.016423 9.799951,2.175238 0.147678,-0.147262 0.499752,-0.52472 1.226887,-1.542757 -2.265813,-2.45213 -5.563364,-3.799332 -10.957766,-3.799332 -5.755704,0 -8.897566,1.501721 -11.162985,3.957069 0.461481,1.194901 1.153703,1.236104 1.302039,1.384446 z"
       id="path4989" />
    <path
       fill="#ffffff"
       stroke="#000000"
       stroke-width="0.835213"
       stroke-linejoin="bevel"
       d="m 40.987335,52.261899 c -3.321291,-1.459022 -6.717803,-2.182524 -10.670992,-2.182524 -3.953189,0 -7.65371,0.804781 -10.974265,2.263823 3.32045,1.460696 6.959181,2.308898 10.912449,2.308898 3.955565,0 7.416704,-0.931214 10.737729,-2.38983 z"
       id="path4991"
       style="fill:#e6e6e6" />
    <path
       stroke="#000000"
       stroke-width="0.439138"
       d="M 40.896681,43.304152 C 42.988274,39.808264 45.740117,33.214953 42.301402,21.994313 39.416284,12.580036 30.915917,3.3940243 24.732857,5.4352756 19.248776,7.2460252 13.278985,20.213471 13.278985,27.016256 c 0,6.508171 2.635981,12.114788 5.679224,16.173353 l 21.945224,0.107138 z"
       id="path4993" />
    <circle
       stroke="#000000"
       stroke-width="0.439138"
       cx="26.920294"
       cy="3.130295"
       r="2.303452"
       id="circle4995" />
    <path
       stroke="#000000"
       stroke-width="0.439138"
       stroke-linejoin="bevel"
       d="m 39.850083,44.573243 -8.12e-4,-0.002 c -2.693167,-1.158083 -5.791045,-2.12858 -9.799951,-2.12858 -4.012119,0 -7.106021,0.971339 -9.799942,2.130985 0,0 -0.603584,3.921628 -0.662309,4.805193 -0.09053,1.358409 -0.226943,2.963139 -0.226943,2.963139 3.320031,-1.459012 7.021571,-2.263813 10.973423,-2.263813 3.877355,0 7.397775,0.775804 10.670992,2.182514 -0.117899,-1.085653 -0.253895,-2.170466 -0.525106,-3.800085 -0.148331,-0.857033 -0.63454,-3.897897 -0.63454,-3.897897 z"
       id="path4997" />
    <path
       fill="none"
       stroke="#ffffff"
       stroke-width="0.439138"
       stroke-linecap="round"
       stroke-linejoin="bevel"
       d="M 39.751201,49.830855 C 36.765896,48.90378 33.57867,48.394306 30.28994,48.394306 c -3.344606,0 -6.762808,0.544837 -9.828787,1.507324"
       id="path4999"
       style="stroke:#e6e6e6;stroke-width:1.32291667;stroke-miterlimit:4;stroke-dasharray:none" />
    <g
       id="g5005"
       transform="matrix(0.2619375,0,0,0.2619375,22.294114,-45.930353)"
       style="stroke:#e6e6e6;stroke-width:5.05050505;stroke-miterlimit:4;stroke-dasharray:none">
      <path
         fill="none"
         stroke="#ffffff"
         stroke-width="1.6765"
         stroke-linecap="round"
         d="m -4.55,344.1631 c 9.5229,-3.8344 20.442,-6.9529 34.1665,-6.9529 13.7978,0 24.7553,3.1524 34.3144,7.0111"
         id="path5001"
         style="stroke:#e6e6e6;stroke-width:5.05050505;stroke-miterlimit:4;stroke-dasharray:none" />
      <path
         fill="none"
         stroke="#ffffff"
         stroke-width="1.6765"
         stroke-linecap="round"
         d="M 70.1382,337.3991 C 58.05,327.7306 48.3767,325.1404 30.4755,325.1404 c -14.993,0 -30.4639,3.9694 -37.8758,10.7593"
         id="path5003"
         style="stroke:#e6e6e6;stroke-width:5.05050505;stroke-miterlimit:4;stroke-dasharray:none" />
    </g>
    <polygon
       fill="#ffffff"
       stroke="#000000"
       stroke-width="1.6765"
       points="30.8121,301.5336 26.6907,297.4123 26.6907,274.6031 47.329,274.6031 51.4818,278.756 59.7875,270.4503 51.4818,262.1446 47.3919,266.266 26.6907,266.266 26.6907,247.5782 30.8121,243.4568 22.5064,235.1512 14.2007,243.4568 18.3535,247.6096 18.3535,266.266 -2.4736,266.266 -6.5949,262.1446 -14.9006,270.4503 -6.5949,278.756 -2.4106,274.6031 18.3535,274.6031 18.3535,297.3808 14.2007,301.5336 22.5064,309.8393 "
       id="polygon5007"
       transform="matrix(0.2619375,0,0,0.2619375,22.294114,-45.930353)"
       style="fill:#e6e6e6" />
  </g>
</svg>
