<?xml version="1.0" encoding="UTF-8" standalone="no"?>
<!-- Created with Inkscape (http://www.inkscape.org/) -->

<svg
   width="53.089016mm"
   height="51.29879mm"
   viewBox="0 0 53.089016 51.29879"
   version="1.1"
   id="svg753"
   xmlns="http://www.w3.org/2000/svg"
   xmlns:svg="http://www.w3.org/2000/svg">
  <defs
     id="defs750" />
  <g
     id="g14396">
    <path
       stroke="#000000"
       stroke-width="0.255389"
       d="m 31.383036,16.56161 c 1.114571,-0.659113 1.585351,-1.54069 1.585351,-2.510881 0,-0.284071 0.04023,-13.66653618 0.04023,-13.66653618 H 19.740936 c 0,0 -0.06237,13.49758718 -0.06237,13.66653618 0,0.977368 0.69251,1.865048 1.822351,2.525707 -0.799119,0.1163 -1.58941,0.258715 -2.370875,0.430153 1.249809,0.798726 2.430361,1.731486 3.522457,2.795371 1.547553,1.505355 2.82793,3.172378 3.833115,4.969845 1.005133,-1.797467 2.286322,-3.464516 3.832303,-4.969845 1.094453,-1.063885 2.275844,-1.998242 3.525652,-2.796916 -0.799354,-0.173062 -1.623436,-0.313146 -2.447517,-0.436755 z"
       id="path4879" />
    <path
       d="m 43.587647,46.978343 c -0.820859,-1.64578 -0.84336,-3.797675 -0.478821,-5.251114 0.373418,-1.495218 3.915206,-4.324771 3.915206,-4.324771 6.239351,-6.068778 7.667801,-14.719709 3.191656,-19.321349 -4.477717,-4.601246 -13.163014,-3.408959 -19.40213,2.660552 -1.863004,1.813131 -3.292266,3.856034 -4.269319,5.953237 C 25.568024,24.597695 24.13719,22.554819 22.274946,20.741661 16.036852,14.67215 7.3500612,13.479889 2.8728159,18.081109 c -4.4757261,4.601247 -3.04643793,13.252833 3.1913417,19.321349 0.2816614,0.27362 3.3909381,2.829553 3.7647229,4.324771 0.3729995,1.493646 0.4249155,3.640774 -0.4724043,5.306566 h 0.1347931 c -0.019724,0.01126 -0.039029,0.01852 -0.059146,0.02978 5.1625257,2.546242 10.9726137,3.978726 17.1169337,3.978726 6.139396,-0.0083 11.866738,-1.524555 17.033717,-4.070954"
       id="path4881"
       style="stroke-width:0.261937" />
    <g
       id="g4887"
       transform="matrix(0.2619375,0,0,0.2619375,-44.46005,-50.299168)"
       style="stroke:#e6e6e6;stroke-width:5.05050505;stroke-miterlimit:4;stroke-dasharray:none">
      <path
         stroke="#ffffff"
         stroke-width="3.1741"
         stroke-linecap="round"
         d="m 209.1954,370.2128 c 18.9687,-8.8515 39.9428,-13.7641 62.2548,-13.7641 21.4327,0 42.0035,5.2628 60.3546,12.7379"
         id="path4883"
         style="stroke:#e6e6e6;stroke-width:5.05050505;stroke-miterlimit:4;stroke-dasharray:none" />
      <path
         stroke="#ffffff"
         stroke-width="3.1741"
         stroke-linecap="round"
         d="m 340.9221,333.4665 c -19.7552,-6.704 -43.9635,-10.6549 -70.1201,-10.6549 -26.3853,0 -50.7842,4.0248 -70.636,10.8361"
         id="path4885"
         style="stroke:#e6e6e6;stroke-width:5.05050505;stroke-miterlimit:4;stroke-dasharray:none" />
    </g>
    <polygon
       fill="none"
       stroke="#ffffff"
       stroke-width="1.9503"
       stroke-linejoin="bevel"
       points="291.623,197.1778 249.1192,235.277 291.623,235.277 249.1192,197.1778 "
       id="polygon4889"
       transform="matrix(0.2619375,0,0,0.2619375,-44.46005,-50.299168)"
       style="stroke:#e6e6e6;stroke-width:5.05050505;stroke-miterlimit:4;stroke-dasharray:none" />
    <path
       fill="none"
       stroke="#ffffff"
       stroke-width="0.831416"
       stroke-linecap="round"
       d="m 41.601611,43.138155 c -4.764984,-1.673125 -9.834548,-2.886656 -15.093022,-2.886656 -5.359739,0 -10.522658,1.247399 -15.364966,2.979199"
       id="path4891"
       style="stroke:#e6e6e6;stroke-width:1.32291667;stroke-miterlimit:4;stroke-dasharray:none" />
    <polygon
       fill="#ffffff"
       stroke="#000000"
       stroke-width="0.9974"
       points="260.98,335.2912 270.9531,340.262 280.9262,335.2912 270.9531,330.2889 "
       id="polygon4893"
       transform="matrix(0.2619375,0,0,0.2619375,-44.46005,-50.299168)"
       style="fill:#e6e6e6" />
    <polygon
       fill="#ffffff"
       stroke="#000000"
       stroke-width="0.9974"
       points="220.2381,341.7722 230.8719,345.0755 239.9012,338.5631 229.2674,335.2283 "
       id="polygon4895"
       transform="matrix(0.2619375,0,0,0.2619375,-44.46005,-50.299168)"
       style="fill:#e6e6e6" />
    <polygon
       fill="#ffffff"
       stroke="#000000"
       stroke-width="0.9974"
       points="321.6996,341.7722 311.0343,345.0755 302.005,338.5631 312.6388,335.2283 "
       id="polygon4897"
       transform="matrix(0.2619375,0,0,0.2619375,-44.46005,-50.299168)"
       style="fill:#e6e6e6" />
    <rect
       x="20.793612"
       y="1.3490908"
       fill="none"
       stroke="#ffffff"
       stroke-width="0.510857"
       stroke-linejoin="bevel"
       width="11.138237"
       height="9.9796095"
       id="rect4899"
       style="stroke:#e6e6e6;stroke-width:1.32291667;stroke-miterlimit:4;stroke-dasharray:none" />
    <ellipse
       fill="none"
       stroke="#ffffff"
       stroke-width="0.510857"
       cx="26.455051"
       cy="15.86936"
       rx="4.6957793"
       ry="3.4682882"
       id="ellipse4901"
       style="stroke:#e6e6e6;stroke-width:1.32291667;stroke-miterlimit:4;stroke-dasharray:none" />
  </g>
</svg>
