<?xml version="1.0" encoding="UTF-8" standalone="no"?>
<!-- Created with Inkscape (http://www.inkscape.org/) -->

<svg
   width="54.095058mm"
   height="52.178139mm"
   viewBox="0 0 54.095058 52.178139"
   version="1.1"
   id="svg458"
   xmlns="http://www.w3.org/2000/svg"
   xmlns:svg="http://www.w3.org/2000/svg">
  <defs
     id="defs455" />
  <g
     id="g12039">
    <path
       fill="#ffffff"
       stroke="#20201e"
       stroke-width="0.997722"
       d="M 33.571222,0.7597511 H 20.304373 V 14.624889 c 0,2.041252 2.98562,3.697878 6.666648,3.697878 3.683394,0 6.574105,-1.656577 6.574105,-3.697878 0,-0.180477 0.02475,-13.8651379 0.02475,-13.8651379 z"
       id="path4903"
       style="fill:#e6e6e6;stroke:#000000;stroke-width:1.32291667;stroke-miterlimit:4;stroke-dasharray:none" />
    <rect
       x="20.303535"
       y="0.75975233"
       fill="#ffffff"
       stroke="#20201e"
       stroke-width="0.997722"
       width="13.266846"
       height="11.888165"
       id="rect4905"
       style="fill:#e6e6e6;stroke:#000000;stroke-width:1.32291667;stroke-miterlimit:4;stroke-dasharray:none" />
    <line
       fill="none"
       stroke="#20201e"
       stroke-width="0.997722"
       x1="20.303535"
       y1="0.75975233"
       x2="33.57122"
       y2="12.647079"
       id="line4907"
       style="stroke:#000000;stroke-width:1.32291667;stroke-miterlimit:4;stroke-dasharray:none" />
    <line
       fill="none"
       stroke="#20201e"
       stroke-width="0.997722"
       x1="33.57122"
       y1="0.75975233"
       x2="20.303535"
       y2="12.647079"
       id="line4909"
       style="stroke:#000000;stroke-width:1.32291667;stroke-miterlimit:4;stroke-dasharray:none" />
    <path
       fill="#ffffff"
       stroke="#20201e"
       stroke-width="0.997722"
       stroke-linejoin="round"
       d="M 44.069984,47.316075 C 38.908193,44.768993 33.297655,43.42989 27.152468,43.42989 c -6.145158,0 -12.021649,1.428035 -17.1845161,3.974691 5.1629451,2.547052 10.9396351,4.013777 17.0839521,4.013777 6.147623,0.0079 11.858517,-1.549281 17.017219,-4.09568 z"
       id="path4911"
       style="fill:#e6e6e6;stroke:#000000;stroke-width:1.32291667;stroke-miterlimit:4;stroke-dasharray:none" />
    <path
       fill="#ffffff"
       stroke="#20201e"
       stroke-width="0.997722"
       stroke-linejoin="bevel"
       d="m 46.64937,38.58085 c 0.296138,-0.259133 0.589881,-0.524294 0.877961,-0.803959 6.238535,-6.069938 7.667798,-14.720528 3.191651,-19.321355 -4.47772,-4.601243 -13.16301,-3.408956 -19.401287,2.660555 -1.863824,1.81274 -3.293918,3.856456 -4.270058,5.953237 C 26.072259,24.972547 24.641432,22.928831 22.778341,21.116091 16.540225,15.04658 7.8526238,13.854323 3.3770546,18.455536 -1.1002432,23.056363 0.3286258,31.707557 6.567977,37.776891 c 0.2889167,0.280457 0.5838585,0.546816 0.8820227,0.805978 5.3866653,-2.022787 12.1955473,-3.231548 19.6023793,-3.231548 7.40023,0 14.207124,1.211404 19.588338,3.23039 z"
       id="path4913"
       style="fill:#e6e6e6;stroke:#000000;stroke-width:1.32291667;stroke-miterlimit:4;stroke-dasharray:none" />
    <path
       fill="#ffffff"
       stroke="#20201e"
       stroke-width="0.997722"
       d="m 27.052745,27.076713 c 0.976219,-2.097206 2.406215,-4.140497 4.270058,-5.952395 1.518601,-1.479139 3.184474,-2.666238 4.899401,-3.552605 -2.844062,-0.79994 -5.932693,-1.238915 -9.164588,-1.238915 -3.233508,0 -6.325476,0.440213 -9.170324,1.2414 1.712521,0.88606 3.377577,2.072238 4.896187,3.550219 1.862428,1.812978 3.288077,3.856694 4.268722,5.949861 z"
       id="path4915"
       style="fill:#e6e6e6;stroke:#000000;stroke-width:1.32291667;stroke-miterlimit:4;stroke-dasharray:none" />
    <path
       fill="#ffffff"
       stroke="#20201e"
       stroke-width="0.997722"
       stroke-linejoin="bevel"
       d="m 46.575189,38.58085 -0.003,-0.004 c -5.383858,-2.020402 -12.18895,-3.227093 -19.58918,-3.227093 -7.406648,0 -14.215373,1.20876 -19.6015413,3.231548 0,0 2.5836475,2.023599 2.9575373,3.518391 0.373418,1.493652 0.533566,3.635933 -0.3641462,5.30138 C 15.1371,44.85446 21.01427,43.426425 27.159428,43.426425 c 6.027624,0 11.83046,1.430441 16.917525,3.886185 -0.820858,-1.644548 -0.822482,-3.760267 -0.458736,-5.212874 0.370854,-1.483347 2.958457,-3.51056 2.958457,-3.51056 z"
       id="path4917"
       style="fill:#e6e6e6;stroke:#000000;stroke-width:1.32291667;stroke-miterlimit:4;stroke-dasharray:none" />
    <path
       fill="#ffffff"
       stroke="#20201e"
       stroke-width="0.997722"
       stroke-linejoin="bevel"
       d="m 9.9695765,47.406729 c 5.1621845,-2.546656 11.0393575,-3.974691 17.1845155,-3.974691 6.027624,0 11.829648,1.430441 16.917515,3.886186 -0.349262,-0.702574 -0.716235,-2.49679 -0.657488,-3.497473 -5.113489,-2.010264 -10.612474,-3.109243 -16.341465,-3.109243 -5.795084,0 -11.352502,1.121818 -16.514557,3.174336 0.06593,1.854181 -0.197788,2.785395 -0.5850892,3.51057 z"
       id="path4919"
       style="fill:#e6e6e6;stroke:#000000;stroke-width:1.32291667;stroke-miterlimit:4;stroke-dasharray:none" />
    <polygon
       points="280.8004,58.4352 271.079,53.5588 261.3261,58.4352 271.079,63.3117 "
       id="polygon4921"
       transform="matrix(0.2619375,0,0,0.2619375,-43.92003,22.796498)"
       style="fill:#000000" />
    <polygon
       points="240.6878,61.6443 230.3056,58.4038 221.4651,64.7904 231.8472,68.0308 "
       id="polygon4923"
       transform="matrix(0.2619375,0,0,0.2619375,-43.92003,22.796498)"
       style="fill:#000000" />
    <polygon
       points="301.4388,61.6443 311.8208,58.4038 320.6613,64.7904 310.2793,68.0308 "
       id="polygon4925"
       transform="matrix(0.2619375,0,0,0.2619375,-43.92003,22.796498)"
       style="fill:#000000" />
    <ellipse
       fill="#ffffff"
       stroke="#20201e"
       stroke-width="0.997722"
       cx="27.052744"
       cy="16.52108"
       rx="4.6965919"
       ry="3.4678953"
       id="ellipse4927"
       style="fill:#e6e6e6;stroke:#000000;stroke-width:1.32291667;stroke-miterlimit:4;stroke-dasharray:none" />
  </g>
</svg>
