<?xml version="1.0" encoding="UTF-8" standalone="no"?>
<!-- Created with Inkscape (http://www.inkscape.org/) -->

<svg
   width="34.969898mm"
   height="52.5984mm"
   viewBox="0 0 34.969898 52.5984"
   version="1.1"
   id="svg4093"
   xmlns="http://www.w3.org/2000/svg"
   xmlns:svg="http://www.w3.org/2000/svg">
  <defs
     id="defs4090" />
  <g
     id="g10925">
    <path
       fill="#ffffff"
       stroke="#000000"
       stroke-width="0.915393"
       stroke-linejoin="round"
       d="m 24.032277,44.47271 c -3.09028,-6.13552 -2.77803,-17.06337 -2.51967,-21.29667 4.88733,-0.33517 8.4023,-1.2611 8.4023,-2.35194 0,-1.07073 -3.38326,-1.98332 -8.12895,-2.33298 3.03073,-1.56161 5.10462,-4.7199 5.10462,-8.3644 0,-5.19473 -4.20974,-9.40603 -9.4052,-9.40603 -5.195488,0 -9.405216,4.21138 -9.405216,9.40603 0,3.64443 2.073026,6.80271 5.104576,8.3644 -4.744882,0.34967 -8.129691,1.26225 -8.129691,2.33298 0,1.09084 3.51685,2.01677 8.403131,2.35194 0.25914,4.23346 0.57137,15.16141 -2.518889,21.29667 -6.056676,1.21756 -10.306743,4.0753 -10.306743,7.405 h 33.704812 c 0,-3.32928 -4.24401,-6.18882 -10.30095,-7.40849 z"
       id="path5089"
       style="fill:#e6e6e6;stroke:#000000;stroke-width:1.32291667;stroke-miterlimit:4;stroke-dasharray:none" />
  </g>
</svg>
