<?xml version="1.0" encoding="UTF-8" standalone="no"?>
<!-- Created with Inkscape (http://www.inkscape.org/) -->

<svg
   width="57.011555mm"
   height="53.759369mm"
   viewBox="0 0 57.011555 53.759369"
   version="1.1"
   id="svg5713"
   xmlns="http://www.w3.org/2000/svg"
   xmlns:svg="http://www.w3.org/2000/svg">
  <defs
     id="defs5710" />
  <g
     id="g11429">
    <path
       fill="#ffffff"
       stroke="#20201e"
       stroke-width="0.915393"
       d="m 14.698767,6.8671501 c 0,0 0.914241,-4.9126671 0.914241,-5.5979748 0,-0.6853077 0.684861,-0.7999299 1.370508,0.1142856 0.685674,0.9138195 3.770329,5.3693739 3.770329,5.3693739 l -6.05699,0.1137312 z"
       id="path5057"
       style="stroke:#000000;stroke-width:1.32291667;stroke-miterlimit:4;stroke-dasharray:none;fill:#e6e6e6" />
    <path
       fill="#ffffff"
       stroke="#20201e"
       stroke-width="0.915393"
       d="m 55.688473,44.549005 c -0.30984,-2.21555 -0.733134,-4.327656 -1.248964,-6.335534 L 52.78411,37.552754 53.889039,36.23052 c -0.629323,-2.123817 -1.360893,-4.123597 -2.165595,-6.003577 l -1.566903,-0.44262 0.774992,-1.32462 c -0.841787,-1.787751 -1.745548,-3.455268 -2.68386,-5.008093 l -1.460676,-0.293337 0.52472,-1.205968 c -1.052627,-1.623194 -2.13348,-3.10563 -3.206175,-4.451179 l -1.545974,-0.169399 0.41284,-1.203889 C 41.717752,14.654312 40.495319,13.372707 39.36466,12.277827 l -1.545984,-0.08692 0.269587,-1.107741 C 35.330301,8.5876117 33.381199,7.3731589 33.381199,7.3731589 l -3.503154,1.0666953 c 0,0 -1.674694,-0.9142452 -3.046022,-1.8280647 0,0 -0.914236,-3.0464676 -1.217592,-4.7219733 C 25.30862,0.2143105 24.395217,0.975571 24.090218,1.4327134 23.78601,1.8898162 20.624867,5.3925748 20.624867,5.3925748 c 0,0 -1.890455,-0.2583207 -3.237547,0 -1.978964,0.3818529 -2.8931,1.7141751 -5.1795,3.8846115 -1.665059,1.5833857 -2.6645595,2.9712077 -3.2351896,4.4555547 -0.5713646,1.485158 0.1134708,1.485158 -0.1134718,2.85609 -0.2301641,1.370932 -6.3994739,11.652469 -7.08355,12.909194 -0.6864591,1.256647 -2.34104014,5.099817 0.9134027,7.539821 0.9125642,0.685644 1.5998618,1.029283 2.1704404,1.256646 0,0 0.9134017,-0.227334 1.2562525,-0.684446 0.061162,-0.08167 0.091753,-0.131571 0.107027,-0.159331 0.011266,-0.03059 0.016899,-0.03257 0,0 -0.0346,0.0889 -0.1142827,0.422898 0.2357962,0.843777 0.5713904,0.68607 1.3053655,0.634966 1.7133336,0.68607 0.6092143,0.07643 1.7133593,-0.456301 2.628306,-1.828065 0.914242,-1.370932 1.48558,-1.82848 2.171279,-2.627994 0.68405,-0.799534 4.465694,-2.568822 5.940795,-5.026557 0.342012,-0.570161 1.141943,-0.342817 1.712495,0.114682 0.571391,0.457103 3.770332,0.571784 5.140868,-1.714175 0,0 0.647817,6.010003 -2.05616,10.168309 C 19.254305,44.921354 11.714146,46.633896 9.4289778,53.03288 H 56.268801 c 0,-2.211096 -0.116701,-4.334072 -0.327531,-6.376165 l -1.557161,-0.82167 1.343261,-1.269091 z"
       id="path5059"
       style="fill:#e6e6e6;stroke:#000000;stroke-width:1.32291667;stroke-miterlimit:4;stroke-dasharray:none" />
    <path
       fill="none"
       stroke="#20201e"
       stroke-width="0.703041"
       d="m 31.551194,9.9656818 c 0,0 19.95343,14.9290222 19.95343,41.8895932"
       id="path5061"
       style="stroke:#000000;stroke-width:1.32291667;stroke-miterlimit:4;stroke-dasharray:none" />
    <path
       fill="none"
       stroke="#20201e"
       stroke-width="0.703041"
       d="m 6.2190117,37.453665 c 0.016474,-0.03297 0.016474,-0.03297 0,0 z"
       id="path5063" />
    <path
       fill="none"
       stroke="#20201e"
       stroke-width="0.703041"
       d="m 27.439041,20.321072 c 0.380645,4.264019 -1.59986,7.310487 -1.675535,7.576826 0,0 4.798797,-2.474633 5.255167,-5.750415"
       id="path5065"
       style="stroke:#000000;stroke-width:1.32291667;stroke-miterlimit:4;stroke-dasharray:none" />
    <path
       fill="none"
       stroke="#20201e"
       stroke-width="0.703041"
       d="m 25.766179,27.902591 c 0,0 3.198907,1.562448 5.560146,0.5722"
       id="path5067"
       style="stroke:#000000;stroke-width:1.32291667;stroke-miterlimit:4;stroke-dasharray:none" />
    <path
       fill="none"
       stroke="#20201e"
       stroke-width="0.703041"
       d="m 6.1118799,37.610254 c 0,0 2.1326164,-2.742201 2.7434286,-3.998848"
       id="path5069" />
    <path
       fill="none"
       stroke="#20201e"
       stroke-width="0.703041"
       d="m 19.25593,12.137148 c 0,0 -3.512792,0.01653 -4.683731,1.941528 -1.59905,2.627995 0.227728,2.970396 0.227728,2.970396 0,0 1.827643,0.571785 3.084681,-1.141915 1.338317,-1.824837 0.228567,-2.970396 0.228567,-2.970396 l 1.137228,-0.800197 z"
       id="path5071"
       style="stroke:#000000;stroke-width:1.32291667;stroke-miterlimit:4;stroke-dasharray:none" />
    <path
       fill="none"
       stroke="#20201e"
       stroke-width="0.703041"
       d="m 2.2304374,31.66865 c 1.2570643,-0.342431 2.0569952,-0.22776 2.6275995,0.114672 0,0 -0.5705785,-1.71375 0.456295,-3.199334 1.0292575,-1.485158 2.7418832,-1.59986 4.2274624,-4.455554"
       id="path5073"
       style="stroke:#000000;stroke-width:1.32291667;stroke-miterlimit:4;stroke-dasharray:none" />
    <line
       fill="none"
       stroke="#20201e"
       stroke-width="0.703041"
       x1="35.589207"
       y1="13.73585"
       x2="37.756523"
       y2="12.3654"
       id="line5075"
       style="stroke:#000000;stroke-width:1.32291667;stroke-miterlimit:4;stroke-dasharray:none" />
    <line
       fill="none"
       stroke="#20201e"
       stroke-width="0.703041"
       x1="40.047447"
       y1="18.648174"
       x2="42.214779"
       y2="17.620546"
       id="line5077"
       style="stroke:#000000;stroke-width:1.32291667;stroke-miterlimit:4;stroke-dasharray:none" />
    <line
       fill="none"
       stroke="#20201e"
       stroke-width="0.703041"
       x1="44.044228"
       y1="24.350811"
       x2="46.557674"
       y2="23.320719"
       id="line5079"
       style="stroke:#000000;stroke-width:1.32291667;stroke-miterlimit:4;stroke-dasharray:none" />
    <line
       fill="none"
       stroke="#20201e"
       stroke-width="0.703041"
       x1="47.241669"
       y1="30.869287"
       x2="49.870472"
       y2="29.954548"
       id="line5081"
       style="stroke:#000000;stroke-width:1.32291667;stroke-miterlimit:4;stroke-dasharray:none" />
    <line
       fill="none"
       stroke="#20201e"
       stroke-width="0.703041"
       x1="49.755112"
       y1="38.52496"
       x2="52.499245"
       y2="37.725616"
       id="line5083"
       style="stroke:#000000;stroke-width:1.32291667;stroke-miterlimit:4;stroke-dasharray:none" />
    <line
       fill="none"
       stroke="#20201e"
       stroke-width="0.703041"
       x1="51.238453"
       y1="46.296043"
       x2="54.09798"
       y2="45.949928"
       id="line5085"
       style="stroke:#000000;stroke-width:1.32291667;stroke-miterlimit:4;stroke-dasharray:none" />
  </g>
</svg>
