<?xml version="1.0" encoding="UTF-8" standalone="no"?>
<!-- Created with Inkscape (http://www.inkscape.org/) -->

<svg
   width="62.983753mm"
   height="58.294769mm"
   viewBox="0 0 62.983753 58.294769"
   version="1.1"
   id="svg458"
   xmlns="http://www.w3.org/2000/svg"
   xmlns:svg="http://www.w3.org/2000/svg">
  <defs
     id="defs455" />
  <g
     id="g12572">
    <path
       fill="#ffffff"
       stroke="#20201e"
       stroke-width="1.08761"
       stroke-linecap="round"
       stroke-linejoin="round"
       d="m 62.103797,54.96558 c -0.514651,-0.280447 -5.150079,-4.835437 -9.449708,-4.835437 -2.234826,0 -3.987631,0.674804 -5.533189,1.269477 -1.567329,0.603583 -3.047279,1.173744 -5.18956,1.173744 -2.49679,0 -4.569444,-0.761716 -6.399479,-1.433748 -1.474754,-0.541599 -2.749052,-1.009582 -4.052407,-1.009582 -1.30285,0 -2.576465,0.467983 -4.051594,1.009582 -1.828798,0.671983 -3.901927,1.433748 -6.399054,1.433748 -2.142283,0 -3.622649,-0.570191 -5.1899,-1.173744 -1.545563,-0.594733 -3.298291,-1.269477 -5.533535,-1.269477 -4.2990483,0 -8.934661,4.554931 -9.44889667,4.835437 0,0 1.97283437,-1.170516 3.61300797,-1.170516 1.6401746,0 3.2500156,1.221204 5.8361257,1.221204 1.32742,0 2.408619,0.416454 3.778395,0.943975 1.735101,0.667963 3.894277,1.499246 6.945091,1.499246 3.36595,0 6.092905,-1.001098 8.083884,-1.732213 0.906573,-0.33358 1.933054,-0.711008 2.366843,-0.711008 0.435372,0 1.461428,0.377428 2.367575,0.711008 1.990989,0.731115 4.717518,1.732213 8.08431,1.732213 3.050081,0 5.209647,-0.831333 6.945088,-1.499246 1.368467,-0.527521 2.450477,-0.943975 3.777582,-0.943975 2.586534,0 3.653219,-1.221204 5.836545,-1.221204 2.200305,0 3.634201,1.17018 3.634201,1.17018 z"
       id="path5009"
       style="fill:#e6e6e6;stroke:#000000;stroke-width:1.32291667;stroke-miterlimit:4;stroke-dasharray:none" />
    <path
       fill="#ffffff"
       stroke="#20201e"
       stroke-width="1.08761"
       d="m 36.219475,5.4417212 c -0.174636,-0.057123 -0.355291,-0.105435 -0.539193,-0.144045 0.87715,-0.3259278 1.504513,-1.1677149 1.504513,-2.1591801 0,-1.2723876 -1.030937,-2.3032152 -2.303216,-2.3032152 -1.272288,0 -2.303641,1.0309365 -2.303641,2.3032152 0,0.88407 0.498159,1.6498152 1.229274,2.0368854 -6.611171,0.4293432 -16.647225,9.1382145 -16.966972,23.8834625 -0.127144,5.858702 0.615658,10.654509 2.661783,14.137893 l 22.120753,-0.157746 c 3.233954,-4.080166 6.207974,-9.244501 6.207974,-16.015953 0,-9.008841 -6.576155,-19.9344716 -11.611275,-21.5875835 z"
       id="path5011"
       style="fill:#e6e6e6;stroke:#000000;stroke-width:1.32291667;stroke-miterlimit:4;stroke-dasharray:none" />
    <path
       fill="#ffffff"
       stroke="#20201e"
       stroke-width="1.08761"
       d="M 42.84508,22.00159 C 40.413066,14.065799 33.992827,6.2971307 28.331413,5.2711442 29.172784,4.927931 29.765151,4.1021918 29.765151,3.1389218 c 0,-1.2723876 -1.030927,-2.3032152 -2.303216,-2.3032152 -1.271971,0 -2.303631,1.0309266 -2.303631,2.3032152 0,0.8984943 0.516246,1.6759215 1.267517,2.055339 -0.390713,0.042669 -0.77419,0.1239282 -1.149172,0.2478465 -5.022525,1.6530129 -11.454688,12.7583977 -11.454688,21.5818217 0,6.508151 2.63682,12.114788 5.680036,16.173383 l 22.12075,-0.157737 c 2.093147,-3.494096 4.656049,-9.823028 1.21964,-21.039559 z"
       id="path5013"
       style="fill:#e6e6e6;stroke:#000000;stroke-width:1.32291667;stroke-miterlimit:4;stroke-dasharray:none" />
    <path
       fill="#ffffff"
       stroke="#000000"
       stroke-width="0.835213"
       stroke-linejoin="bevel"
       d="m 41.551269,52.27085 c -2.779633,-1.27516 -6.717388,-2.182911 -10.669349,-2.182911 -3.953763,0 -7.654937,0.804752 -10.975073,2.264586 3.320037,1.459012 6.959603,2.30767 10.912446,2.30767 3.955574,0 7.416713,-0.931214 10.737738,-2.38982 z"
       id="path5015"
       style="fill:#e6e6e6;stroke:#000000;stroke-width:1.32291667;stroke-miterlimit:4;stroke-dasharray:none" />
    <path
       fill="#ffffff"
       stroke="#20201e"
       stroke-width="1.08761"
       stroke-linejoin="bevel"
       d="m 40.397562,44.582173 -0.002,-0.003 c -2.693156,-1.157656 -5.79146,-2.128183 -9.79994,-2.128183 -4.012124,0 -7.106022,0.971338 -9.799951,2.130985 0,0 -0.60358,3.920816 -0.661914,4.806034 -0.09094,1.35725 -0.227336,2.963139 -0.227336,2.963139 3.320037,-1.459854 7.021162,-2.264575 10.975073,-2.264575 3.876127,0 7.396597,0.775378 10.669349,2.1829 -0.117503,-1.086465 -0.253509,-2.17201 -0.52472,-3.800897 -0.148332,-0.86528 -0.63454,-3.897887 -0.63454,-3.897887 z"
       id="path5017"
       style="fill:#e6e6e6;stroke:#000000;stroke-width:1.32291667;stroke-miterlimit:4;stroke-dasharray:none" />
    <path
       fill="#ffffff"
       stroke="#20201e"
       stroke-width="1.08761"
       stroke-linejoin="bevel"
       d="m 19.902709,52.353228 c 3.320036,-1.459854 7.021151,-2.264576 10.975073,-2.264576 3.876127,0 7.396616,0.775388 10.669349,2.182901 -0.08415,-0.908949 -0.285279,-1.475516 -0.412028,-2.635559 -3.288652,-1.152053 -6.622804,-1.739865 -10.308395,-1.739865 -3.727321,0 -7.420743,0.676793 -10.741036,1.853755 -0.01647,1.021868 -0.189537,2.604106 -0.189537,2.604106 z"
       id="path5019"
       style="fill:#e6e6e6;stroke:#000000;stroke-width:1.32291667;stroke-miterlimit:4;stroke-dasharray:none" />
    <path
       fill="#ffffff"
       stroke="#20201e"
       stroke-width="1.08761"
       d="m 20.792721,44.582173 c 2.693582,-1.158815 5.790312,-2.151161 9.803247,-2.176881 3.416629,-0.02257 7.10725,1.016423 9.800783,2.175228 0.147678,-0.148075 0.773368,-0.338006 1.226471,-1.542757 -2.264972,-2.452131 -5.632575,-3.732924 -11.026996,-3.732924 -5.756098,0 -8.829177,1.435283 -11.093758,3.890641 0.445006,1.203157 1.137228,1.236104 1.285561,1.384436 z"
       id="path5021"
       style="fill:#e6e6e6;stroke:#000000;stroke-width:1.32291667;stroke-miterlimit:4;stroke-dasharray:none" />
    <line
       fill="none"
       stroke="#000000"
       stroke-width="0.835213"
       x1="30.599264"
       y1="39.308094"
       x2="30.599264"
       y2="42.406631"
       id="line5023"
       style="stroke:#000000;stroke-width:1.32291667;stroke-miterlimit:4;stroke-dasharray:none" />
    <polygon
       fill="#ffffff"
       stroke="#000000"
       stroke-width="2.4221"
       points="23.3873,4.4798 44.0571,4.4798 48.2099,8.6326 56.5156,0.327 48.2099,-7.9787 44.0886,-3.8573 23.3873,-3.8573 23.3873,-22.5262 27.5087,-26.6476 19.203,-34.947 10.8973,-26.6476 15.0501,-22.4822 15.0501,-3.8573 -5.7455,-3.8573 -9.8669,-7.9787 -18.1726,0.327 -9.8669,8.6326 -5.714,4.4798 15.0501,4.4798 15.0501,27.289 10.8973,31.4418 19.203,39.7475 27.5087,31.4418 23.3873,27.3204 "
       id="polygon5025"
       transform="matrix(0.2619375,0,0,0.2619375,23.698628,24.825773)"
       style="fill:#e6e6e6;stroke:#000000;stroke-width:5.05050505;stroke-miterlimit:4;stroke-dasharray:none" />
  </g>
  <path
     fill="none"
     stroke="#20201e"
     stroke-width="0.710142"
     d="m -11.329565,39.82691 c -0.01664,-0.0333 -0.01664,-0.0333 0,0 z"
     id="path5097" />
</svg>
