<?xml version="1.0" encoding="UTF-8" standalone="no"?>
<!-- Created with Inkscape (http://www.inkscape.org/) -->

<svg
   width="66.84742mm"
   height="53.110863mm"
   viewBox="0 0 66.84742 53.110863"
   version="1.1"
   id="svg458"
   xmlns="http://www.w3.org/2000/svg"
   xmlns:svg="http://www.w3.org/2000/svg">
  <defs
     id="defs455" />
  <g
     id="g10242">
    <path
       fill="#ffffff"
       stroke="#20201e"
       stroke-width="0.915393"
       stroke-linejoin="bevel"
       d="m 54.043885,48.62408 c -4.999184,-2.337419 -10.47818,-3.564703 -16.526892,-3.564703 -6.048741,0 -11.912054,1.339965 -17.07576,3.677791 4.999183,2.33543 10.670182,3.650407 16.719736,3.650407 6.056959,0.0079 11.726649,-1.425649 16.885351,-3.757802 z"
       id="path4945"
       style="fill:#e6e6e6;stroke-width:1.32291667;stroke-miterlimit:4;stroke-dasharray:none;stroke:#000000" />
    <path
       fill="#ffffff"
       stroke="#20201e"
       stroke-width="0.915393"
       stroke-linejoin="bevel"
       d="m 53.673031,38.133545 -0.003,-0.0059 c -4.493779,-1.852527 -9.722493,-2.979622 -16.51126,-2.979622 -6.796988,0 -12.052161,1.127827 -16.677715,2.985305 0,0 0.504597,4.288175 0.525499,5.706172 0.02494,1.597058 -0.421693,4.869661 -0.421693,4.869661 5.163338,-2.337825 10.88607,-3.651991 16.934813,-3.651991 5.932694,0 11.962319,1.217561 16.526892,3.564713 -0.749925,-1.49983 -0.370854,-10.482298 -0.370854,-10.482298 z"
       id="path4947"
       style="fill:#e6e6e6;stroke-width:1.32291667;stroke-miterlimit:4;stroke-dasharray:none;stroke:#000000" />
    <path
       fill="#ffffff"
       stroke="#20201e"
       stroke-width="0.915393"
       stroke-linejoin="bevel"
       d="m 20.602771,48.681768 c 4.859988,-2.311314 10.867943,-3.624648 16.916707,-3.624648 5.932703,0 10.913285,0.83653 16.526891,3.564713 -0.226125,-0.630541 -0.377447,-2.589335 -0.426531,-3.299937 -4.968642,-1.845776 -10.44851,-2.893523 -16.08852,-2.893523 -5.702535,0 -11.439857,1.104929 -16.58706,2.988523 -0.107132,0.733422 -0.337873,3.2551 -0.337873,3.2551 z"
       id="path4949"
       style="fill:#e6e6e6;stroke-width:1.32291667;stroke-miterlimit:4;stroke-dasharray:none;stroke:#000000" />
    <path
       fill="#ffffff"
       stroke="#20201e"
       stroke-width="0.915393"
       d="m 64.822826,10.794735 c -1.201513,-0.701762 -2.745002,-0.296149 -3.446784,0.906979 -0.602771,1.030936 -0.387901,2.30966 0.441808,3.097155 -3.433112,4.161426 -9.699387,11.753835 -11.211602,13.59565 -0.444252,-0.198366 -0.904583,-0.386694 -1.383396,-0.562537 0.135996,-1.412394 1.128234,-12.189781 1.654577,-17.9220794 1.143569,0.026136 2.198651,-0.731115 2.497206,-1.8855837 0.34846,-1.3483503 -0.46033,-2.7237573 -1.809126,-3.0725739 -1.346361,-0.348876 -2.721688,0.4607163 -3.07101,1.8082845 -0.299366,1.1548548 0.255103,2.3290146 1.268358,2.8605357 -2.482692,5.6349608 -7.300012,16.5705908 -7.312041,16.6159028 -0.002,0.01089 -7.82e-4,0.02218 -0.003,0.03336 -0.437778,-0.05188 -0.887703,-0.09821 -1.34636,-0.135996 -0.09098,-0.606395 -2.156765,-13.283325 -3.233508,-19.8858533 1.237777,-0.2897037 2.15915,-1.3974642 2.15915,-2.7237573 0,-1.545984 -1.253003,-2.8009773 -2.799799,-2.8009773 -1.546796,0 -2.800562,1.2550725 -2.800562,2.8009773 0,1.3262634 0.923878,2.4340041 2.160834,2.7237573 -1.071982,6.5729273 -3.124896,19.1639453 -3.232677,19.8751313 -0.478853,0.03861 -0.947222,0.08415 -1.404329,0.138016 -0.0033,-0.01604 -0.0024,-0.0298 -0.0072,-0.04425 C 31.932102,26.171435 27.113921,15.23438 24.632875,9.6001316 25.644453,9.0689768 26.198136,7.8952922 25.89958,6.7395959 25.551098,5.3920574 24.17493,4.5824057 22.827812,4.9313114 21.480694,5.2802369 20.671045,6.655535 21.020286,8.0026577 c 0.299368,1.1560032 1.352803,1.9125117 2.496369,1.8859797 0.526311,5.7258726 1.515388,16.4807576 1.654607,17.9154756 -0.469994,0.171409 -0.922229,0.354499 -1.358407,0.547232 -1.573354,-1.913759 -7.768412,-9.422513 -11.176979,-13.551961 0.831311,-0.787466 1.04542,-2.066219 0.44422,-3.097146 -0.700945,-1.203157 -2.245302,-1.60877 -3.4476213,-0.906988 -1.2015066,0.701336 -1.607955,2.244884 -0.9069845,3.448011 0.6027704,1.030095 1.8227968,1.47311 2.9164908,1.136738 2.049739,5.338387 8.666019,22.519599 8.918998,22.756942 4.56062,-1.856171 9.804896,-2.985305 16.600257,-2.985305 6.792202,0 12.034856,1.127827 16.596123,2.983652 0.251093,-0.237808 6.95473,-17.277629 9.05746,-22.755289 1.094455,0.336372 2.31367,-0.106643 2.915679,-1.136738 0.675744,-1.202315 0.271923,-2.745834 -0.931214,-3.44712 z"
       id="path4951"
       style="fill:#e6e6e6;stroke-width:1.32291667;stroke-miterlimit:4;stroke-dasharray:none;stroke:#000000" />
    <polygon
       points="517.4178,63.6578 508.4514,59.1903 499.5166,63.6578 508.4514,68.1252 "
       id="polygon4953"
       transform="matrix(0.2619375,0,0,0.2619375,-95.933353,22.275032)"
       style="fill:#000000;stroke-width:5.05050505;stroke-miterlimit:4;stroke-dasharray:none" />
    <polygon
       points="480.6085,66.5522 471.0759,63.5948 462.959,69.4466 472.4917,72.4039 "
       id="polygon4955"
       transform="matrix(0.2619375,0,0,0.2619375,-95.933353,22.275032)"
       style="fill:#000000;stroke-width:5.05050505;stroke-miterlimit:4;stroke-dasharray:none" />
    <polygon
       points="536.3259,66.6151 545.8585,63.6263 553.9753,69.478 544.4427,72.4668 "
       id="polygon4957"
       transform="matrix(0.2619375,0,0,0.2619375,-95.933353,22.275032)"
       style="fill:#000000;stroke-width:5.05050505;stroke-miterlimit:4;stroke-dasharray:none" />
  </g>
</svg>
