<?xml version="1.0" encoding="UTF-8" standalone="no"?>
<svg
   width="512px"
   height="512px"
   viewBox="-32 0 512 512"
   version="1.1"
   id="svg6733"
   xmlns="http://www.w3.org/2000/svg"
   xmlns:svg="http://www.w3.org/2000/svg">
  <defs
     id="defs6737" />
  <g
     id="g16065">
    <path
       d="M 400,448 H 48 a 16,16 0 0 0 -16,16 v 32 a 16,16 0 0 0 16,16 h 352 a 16,16 0 0 0 16,-16 V 464 A 16,16 0 0 0 400,448 Z M 416,160 H 256 v -48 h 40 a 8,8 0 0 0 8,-8 V 56 a 8,8 0 0 0 -8,-8 H 256 V 8 a 8,8 0 0 0 -8,-8 h -48 a 8,8 0 0 0 -8,8 v 40 h -40 a 8,8 0 0 0 -8,8 v 48 a 8,8 0 0 0 8,8 h 40 v 48 H 32 A 32,32 0 0 0 1.48,201.54 L 74.56,416 H 373.44 L 446.52,201.54 A 32,32 0 0 0 416,160 Z"
       id="path6731"
       style="fill:#e6e6e6;stroke:#000000;stroke-width:10;stroke-miterlimit:4;stroke-dasharray:none" />
  </g>
</svg>
