<?xml version="1.0" encoding="UTF-8" standalone="no"?>
<svg
   width="512px"
   height="512px"
   viewBox="-96 0 512 512"
   version="1.1"
   id="svg7825"
   xmlns="http://www.w3.org/2000/svg"
   xmlns:svg="http://www.w3.org/2000/svg">
  <defs
     id="defs7829" />
  <g
     id="g15592">
    <path
       d="M105.1 224H80a16 16 0 0 0-16 16v32a16 16 0 0 0 16 16h16v5.49c0 44-4.14 86.6-24 122.51h176c-19.89-35.91-24-78.51-24-122.51V288h16a16 16 0 0 0 16-16v-32a16 16 0 0 0-16-16h-25.1c29.39-18.38 49.1-50.78 49.1-88a104 104 0 0 0-208 0c0 37.22 19.71 69.62 49.1 88zM304 448H16a16 16 0 0 0-16 16v32a16 16 0 0 0 16 16h288a16 16 0 0 0 16-16v-32a16 16 0 0 0-16-16z"
       id="path7823"
       style="fill:#e6e6e6;stroke:#000000;stroke-width:10;stroke-miterlimit:4;stroke-dasharray:none" />
  </g>
</svg>
