<?xml version="1.0" encoding="UTF-8" standalone="no"?>
<svg
   width="512px"
   height="512px"
   viewBox="-96 0 512 512"
   version="1.1"
   id="svg6444"
   xmlns="http://www.w3.org/2000/svg"
   xmlns:svg="http://www.w3.org/2000/svg">
  <defs
     id="defs6448" />
  <g
     id="g16307">
    <path
       d="m 8,287.88 c 0,51.64 22.14,73.83 56,84.6 V 416 h 192 v -43.52 c 33.86,-10.77 56,-33 56,-84.6 0,-30.61 -10.73,-67.1 -26.69,-102.56 L 185,285.65 a 8,8 0 0 1 -11.31,0 l -11.31,-11.31 a 8,8 0 0 1 0,-11.31 L 270.27,155.1 C 249.47,117.19 223.8,83 199.4,62.51 213.4,59.09 224,47.05 224,32 A 32,32 0 0 0 192,0 H 128 A 32,32 0 0 0 96,32 c 0,15 10.6,27.09 24.6,30.51 C 67.81,106.8 8,214.5 8,287.88 Z M 304,448 H 16 A 16,16 0 0 0 0,464 v 32 a 16,16 0 0 0 16,16 h 288 a 16,16 0 0 0 16,-16 v -32 a 16,16 0 0 0 -16,-16 z"
       id="path6442"
       style="fill:#e6e6e6;stroke:#000000;stroke-width:10;stroke-miterlimit:4;stroke-dasharray:none" />
  </g>
</svg>
