<?xml version="1.0" encoding="UTF-8" standalone="no"?>
<svg
   width="512px"
   height="512px"
   viewBox="-64 0 512 512"
   version="1.1"
   id="svg4604"
   xmlns="http://www.w3.org/2000/svg"
   xmlns:svg="http://www.w3.org/2000/svg">
  <defs
     id="defs4608" />
  <g
     id="g15117">
    <path
       d="M 368,448 H 16 A 16,16 0 0 0 0,464 v 32 a 16,16 0 0 0 16,16 h 352 a 16,16 0 0 0 16,-16 v -32 a 16,16 0 0 0 -16,-16 z"
       id="path4694"
       style="fill:#e6e6e6;stroke:#000000;stroke-width:10;stroke-miterlimit:4;stroke-dasharray:none" />
    <path
       d="M 368,32 H 312 A 16,16 0 0 0 296,48 V 96 H 248 V 48 A 16,16 0 0 0 232,32 H 152 A 16,16 0 0 0 136,48 V 96 H 88.1 V 48 A 16,16 0 0 0 72.1,32 H 16 A 16,16 0 0 0 0,48 v 176 l 64,32 c 0,48.33 -1.54,95 -13.21,160 H 333.21 C 321.54,351 320,303.72 320,256 l 64,-32 V 48 A 16,16 0 0 0 368,32 Z"
       id="path4602"
       style="fill:#e6e6e6;stroke:#000000;stroke-width:10;stroke-miterlimit:4;stroke-dasharray:none" />
  </g>
</svg>
