<?xml version="1.0" encoding="UTF-8" standalone="no"?>
<!-- Created with Inkscape (http://www.inkscape.org/) -->

<svg
   id="svg1"
   sodipodi:docname="blackBishop.svg"
   inkscape:export-filename="C:\joanna\Gfx\drawings_vector\admin\thumbs\Igor Krizanovskij\chess_set_symbols_igor_k_01_ok.png"
   viewBox="0 0 83.657 89.854"
   sodipodi:version="0.32"
   inkscape:export-xdpi="51.457458"
   version="1.0"
   inkscape:output_extension="org.inkscape.output.svg.inkscape"
   inkscape:export-ydpi="51.457458"
   inkscape:version="1.1 (c4e8f9e, 2021-05-24)"
   xmlns:inkscape="http://www.inkscape.org/namespaces/inkscape"
   xmlns:sodipodi="http://sodipodi.sourceforge.net/DTD/sodipodi-0.dtd"
   xmlns="http://www.w3.org/2000/svg"
   xmlns:svg="http://www.w3.org/2000/svg"
   xmlns:rdf="http://www.w3.org/1999/02/22-rdf-syntax-ns#"
   xmlns:cc="http://creativecommons.org/ns#"
   xmlns:dc="http://purl.org/dc/elements/1.1/">
  <defs
     id="defs3431" />
  <sodipodi:namedview
     id="base"
     bordercolor="#666666"
     inkscape:pageshadow="2"
     inkscape:window-width="1366"
     pagecolor="#ffffff"
     inkscape:zoom="5.4866786"
     inkscape:window-x="0"
     showgrid="false"
     borderopacity="1.0"
     inkscape:current-layer="layer1"
     inkscape:cx="41.919714"
     inkscape:cy="109.26465"
     inkscape:window-y="0"
     inkscape:window-height="703"
     inkscape:pageopacity="0.0"
     inkscape:pagecheckerboard="0"
     inkscape:window-maximized="1" />
  <g
     id="layer1"
     inkscape:label="Layer 1"
     inkscape:groupmode="layer"
     transform="translate(-569.89 -70.34)">
    <g
       id="g4960">
      <path
         style="fill:#000000"
         d="m 629.41,124.05 2.58,9.94 c 0,3.01 -3.06,4.77 -9.17,5.29 4.48,1.72 8.65,2.58 12.53,2.58 0.51,0 3.05,-0.13 7.61,-0.39 3.79,0 6.89,1.98 9.3,5.94 0.34,0.69 0.77,1.47 1.29,2.33 l -4.65,7.1 c -1.38,1.72 -2.84,2.84 -4.39,3.35 -0.34,-1.8 -3.1,-2.92 -8.26,-3.35 l -3.1,-0.26 c -10.59,-0.86 -17.73,-3.14 -21.43,-6.84 -3.36,3.53 -8.48,5.55 -15.36,6.06 -1.55,0.18 -3.57,0.43 -6.07,0.78 -6.28,0.52 -9.94,1.42 -10.97,2.71 -0.18,0.26 -0.31,0.56 -0.39,0.9 -2.24,-0.94 -4.35,-3.09 -6.33,-6.45 -0.77,-1.38 -1.68,-2.71 -2.71,-4 2.33,-4.31 4.82,-6.89 7.49,-7.75 0.95,-0.34 1.98,-0.52 3.1,-0.52 0,0 2.54,0.13 7.61,0.39 3.96,0 8.14,-0.86 12.53,-2.58 -6.11,-0.52 -9.17,-2.28 -9.17,-5.29 0,-0.26 0.69,-2.46 2.07,-6.59 0.43,-1.37 0.64,-2.32 0.64,-2.84 -5.25,-6.37 -7.87,-12 -7.87,-16.91 0,-5.68 2.79,-10.844 8.39,-15.492 4.99,-4.217 8.61,-6.455 10.84,-6.713 -1.89,-2.324 -2.84,-4.734 -2.84,-7.23 0,-4.045 2.03,-6.541 6.07,-7.488 0.95,-0.258 1.94,-0.387 2.97,-0.387 4.3,0 7.1,1.592 8.39,4.777 l 0.65,2.711 v 0.387 c 0,2.41 -0.95,4.82 -2.84,7.23 1.63,0.43 4.08,1.764 7.36,4.002 7.91,5.508 11.87,11.573 11.87,18.203 0,4.99 -2.58,10.46 -7.74,16.4"
         id="path3517" />
      <path
         style="fill:#e6e6e6"
         d="m 611.72,75.633 c -1.72,0 -2.8,0.775 -3.23,2.324 l -0.13,0.775 c 0,1.635 0.86,2.668 2.59,3.098 0.25,0.086 0.51,0.129 0.77,0.129 2.15,0 3.23,-1.076 3.23,-3.227 0,-2.066 -1.08,-3.099 -3.23,-3.099"
         id="path4863" />
      <path
         style="fill:#e6e6e6"
         d="m 614.04,112.04 v -5.94 h 4.52 v -4.91 h -4.52 v -5.546 h -4.64 v 5.546 h -4.52 v 4.91 h 4.52 v 5.94 h 4.64"
         id="path4861" />
      <path
         style="fill:#e6e6e6"
         d="m 605.39,118.49 c -3.78,0 -5.89,0.43 -6.32,1.3 -0.17,0.17 -0.26,0.43 -0.26,0.77 0,0.95 0.9,1.51 2.71,1.68 2.24,0.26 5.64,0.39 10.2,0.39 4.56,0 8,-0.13 10.33,-0.39 1.72,-0.17 2.58,-0.73 2.58,-1.68 0,-1.38 -2.19,-2.07 -6.58,-2.07 h -12.66"
         id="path4859" />
      <path
         style="fill:#e6e6e6"
         d="m 605.39,126.5 c -4.39,0 -6.58,0.69 -6.58,2.06 0,1.21 1.94,1.94 5.81,2.2 h 7.1 c 8.61,0 12.91,-0.73 12.91,-2.2 0,-1.37 -2.19,-2.06 -6.58,-2.06 h -12.66"
         id="path4857" />
    </g>
  </g>
  <metadata
     id="metadata3428">
    <rdf:RDF>
      <cc:Work>
        <dc:format>image/svg+xml</dc:format>
        <dc:type
           rdf:resource="http://purl.org/dc/dcmitype/StillImage" />
        <cc:license
           rdf:resource="http://creativecommons.org/licenses/publicdomain/" />
        <dc:publisher>
          <cc:Agent
             rdf:about="http://openclipart.org/">
            <dc:title>Openclipart</dc:title>
          </cc:Agent>
        </dc:publisher>
        <dc:title>Chess symbols set </dc:title>
        <dc:date>2009-04-06T07:41:21</dc:date>
        <dc:description>Chess set by Igor Krizanovskij. From old OCAL site.</dc:description>
        <dc:source>https://openclipart.org/detail/24135/chess-symbols-set--by-anonymous-24135</dc:source>
        <dc:creator>
          <cc:Agent>
            <dc:title>Anonymous</dc:title>
          </cc:Agent>
        </dc:creator>
        <dc:subject>
          <rdf:Bag>
            <rdf:li>board</rdf:li>
            <rdf:li>chess</rdf:li>
            <rdf:li>collection</rdf:li>
            <rdf:li>figure</rdf:li>
            <rdf:li>game</rdf:li>
            <rdf:li>piece</rdf:li>
            <rdf:li>play</rdf:li>
            <rdf:li>set</rdf:li>
            <rdf:li>symbol</rdf:li>
          </rdf:Bag>
        </dc:subject>
      </cc:Work>
      <cc:License
         rdf:about="http://creativecommons.org/licenses/publicdomain/">
        <cc:permits
           rdf:resource="http://creativecommons.org/ns#Reproduction" />
        <cc:permits
           rdf:resource="http://creativecommons.org/ns#Distribution" />
        <cc:permits
           rdf:resource="http://creativecommons.org/ns#DerivativeWorks" />
      </cc:License>
    </rdf:RDF>
  </metadata>
</svg>
