<?xml version="1.0" encoding="UTF-8" standalone="no"?>
<!-- Created with Inkscape (http://www.inkscape.org/) -->

<svg
   id="svg1"
   sodipodi:docname="blackKnight.svg"
   inkscape:export-filename="C:\joanna\Gfx\drawings_vector\admin\thumbs\Igor Krizanovskij\chess_set_symbols_igor_k_01_ok.png"
   viewBox="0 0 77.589 76.04"
   sodipodi:version="0.32"
   inkscape:export-xdpi="51.457458"
   version="1.0"
   inkscape:output_extension="org.inkscape.output.svg.inkscape"
   inkscape:export-ydpi="51.457458"
   inkscape:version="1.1 (c4e8f9e, 2021-05-24)"
   xmlns:inkscape="http://www.inkscape.org/namespaces/inkscape"
   xmlns:sodipodi="http://sodipodi.sourceforge.net/DTD/sodipodi-0.dtd"
   xmlns="http://www.w3.org/2000/svg"
   xmlns:svg="http://www.w3.org/2000/svg"
   xmlns:rdf="http://www.w3.org/1999/02/22-rdf-syntax-ns#"
   xmlns:cc="http://creativecommons.org/ns#"
   xmlns:dc="http://purl.org/dc/elements/1.1/">
  <defs
     id="defs2812" />
  <sodipodi:namedview
     id="base"
     bordercolor="#666666"
     inkscape:pageshadow="2"
     inkscape:window-width="1366"
     pagecolor="#ffffff"
     inkscape:zoom="6.4834297"
     inkscape:window-x="0"
     showgrid="false"
     borderopacity="1.0"
     inkscape:current-layer="layer1"
     inkscape:cx="38.868317"
     inkscape:cy="61.310143"
     inkscape:window-y="0"
     inkscape:window-height="703"
     inkscape:pageopacity="0.0"
     inkscape:pagecheckerboard="0"
     inkscape:window-maximized="1" />
  <g
     id="layer1"
     inkscape:label="Layer 1"
     inkscape:groupmode="layer"
     transform="translate(-740.92 -80.281)">
    <g
       id="g4249">
      <path
         style="fill:#000000"
         d="m 756.54,82.088 c 0.17,0 0.6,-0.043 1.29,-0.129 3.88,0 8.01,1.291 12.4,3.873 0.51,0.344 0.77,0.516 0.77,0.516 2.5,-4.045 4.39,-6.067 5.68,-6.067 2.76,1.549 4.56,3.227 5.42,5.035 0.43,0.86 1.08,2.668 1.94,5.422 0.69,-0.172 1.38,-0.258 2.07,-0.258 7.23,0 14.11,4.432 20.65,13.3 7.83,10.24 11.75,24.18 11.75,41.83 0,3.95 -0.17,7.53 -0.52,10.71 h -54.48 c 0.18,-5.77 2.28,-11.23 6.33,-16.4 0.43,-0.68 1.03,-1.46 1.81,-2.32 3.18,-4.04 5.12,-7.14 5.81,-9.29 0.34,-1.12 0.6,-2.28 0.77,-3.49 -5.68,2.24 -9.94,5.55 -12.78,9.94 -1.29,2.15 -2.71,4.39 -4.26,6.71 -0.43,0.69 -1.08,1.04 -1.94,1.04 -2.15,0 -3.22,-1.34 -3.22,-4.01 -0.87,1.12 -1.86,1.68 -2.97,1.68 0,0 -0.86,-0.21 -2.59,-0.64 -3.7,-0.95 -6.32,-2.58 -7.87,-4.91 -0.52,-0.77 -1.08,-1.81 -1.68,-3.1 0.6,-3.7 3.57,-11.06 8.91,-22.07 3.87,-7.92 6.28,-13.601 7.23,-17.044 0.08,-0.774 0.13,-1.893 0.13,-3.356 0,-1.205 -0.22,-3.529 -0.65,-6.972"
         id="path2896" />
      <path
         style="fill:#e6e6e6"
         d="m 812.18,147.28 v -4.77 c 0,-14.03 -3.57,-25.52 -10.71,-34.47 -6.2,-7.75 -11.84,-11.622 -16.91,-11.622 0,0 -0.52,-0.086 -1.55,-0.258 -0.17,0.086 -0.3,0.172 -0.39,0.258 -1.12,0 -1.68,0.474 -1.68,1.42 0,0.345 0.26,0.775 0.78,1.291 4.64,0.431 9.72,3.741 15.23,9.941 6.97,8.09 10.46,19.8 10.46,35.12 v 0.77 c 0,3.79 0.81,5.68 2.45,5.68 1.38,0 2.15,-1.12 2.32,-3.36"
         id="path4171" />
      <path
         style="fill:#e6e6e6"
         d="m 748.8,127.4 c -2.07,0 -3.45,0.91 -4.14,2.71 -0.17,0.43 -0.25,0.86 -0.25,1.29 0,0.35 0.13,0.78 0.38,1.3 2.24,0 3.62,-0.95 4.13,-2.84 0.09,-0.26 0.13,-0.56 0.13,-0.91 0,-0.17 -0.08,-0.69 -0.25,-1.55"
         id="path4169" />
      <path
         style="fill:#e6e6e6"
         d="m 758.74,110.36 c 2.15,0 4.43,-1.25 6.84,-3.74 1.29,-1.29 1.94,-2.41 1.94,-3.36 0,-1.12 -1.04,-1.68 -3.1,-1.68 -2.41,0 -4.44,1.08 -6.07,3.23 -0.86,1.03 -1.29,2.11 -1.29,3.23 0,1.55 0.56,2.32 1.68,2.32"
         id="path4167" />
    </g>
  </g>
  <metadata
     id="metadata2809">
    <rdf:RDF>
      <cc:Work>
        <dc:format>image/svg+xml</dc:format>
        <dc:type
           rdf:resource="http://purl.org/dc/dcmitype/StillImage" />
        <cc:license
           rdf:resource="http://creativecommons.org/licenses/publicdomain/" />
        <dc:publisher>
          <cc:Agent
             rdf:about="http://openclipart.org/">
            <dc:title>Openclipart</dc:title>
          </cc:Agent>
        </dc:publisher>
        <dc:title>Chess symbols set </dc:title>
        <dc:date>2009-04-06T07:41:21</dc:date>
        <dc:description>Chess set by Igor Krizanovskij. From old OCAL site.</dc:description>
        <dc:source>https://openclipart.org/detail/24136/chess-symbols-set--by-anonymous-24136</dc:source>
        <dc:creator>
          <cc:Agent>
            <dc:title>Anonymous</dc:title>
          </cc:Agent>
        </dc:creator>
        <dc:subject>
          <rdf:Bag>
            <rdf:li>board</rdf:li>
            <rdf:li>chess</rdf:li>
            <rdf:li>collection</rdf:li>
            <rdf:li>figure</rdf:li>
            <rdf:li>game</rdf:li>
            <rdf:li>piece</rdf:li>
            <rdf:li>play</rdf:li>
            <rdf:li>set</rdf:li>
            <rdf:li>symbol</rdf:li>
          </rdf:Bag>
        </dc:subject>
      </cc:Work>
      <cc:License
         rdf:about="http://creativecommons.org/licenses/publicdomain/">
        <cc:permits
           rdf:resource="http://creativecommons.org/ns#Reproduction" />
        <cc:permits
           rdf:resource="http://creativecommons.org/ns#Distribution" />
        <cc:permits
           rdf:resource="http://creativecommons.org/ns#DerivativeWorks" />
      </cc:License>
    </rdf:RDF>
  </metadata>
</svg>
