<?xml version="1.0" encoding="UTF-8" standalone="no"?>
<!-- Created with Inkscape (http://www.inkscape.org/) -->

<svg
   id="svg1"
   sodipodi:docname="blackQueen.svg"
   inkscape:export-filename="C:\joanna\Gfx\drawings_vector\admin\thumbs\Igor Krizanovskij\chess_set_symbols_igor_k_01_ok.png"
   viewBox="0 0 89.595 83.399"
   sodipodi:version="0.32"
   inkscape:export-xdpi="51.457458"
   version="1.0"
   inkscape:output_extension="org.inkscape.output.svg.inkscape"
   inkscape:export-ydpi="51.457458"
   inkscape:version="1.1 (c4e8f9e, 2021-05-24)"
   xmlns:inkscape="http://www.inkscape.org/namespaces/inkscape"
   xmlns:sodipodi="http://sodipodi.sourceforge.net/DTD/sodipodi-0.dtd"
   xmlns="http://www.w3.org/2000/svg"
   xmlns:svg="http://www.w3.org/2000/svg"
   xmlns:rdf="http://www.w3.org/1999/02/22-rdf-syntax-ns#"
   xmlns:cc="http://creativecommons.org/ns#"
   xmlns:dc="http://purl.org/dc/elements/1.1/">
  <defs
     id="defs2412" />
  <sodipodi:namedview
     id="base"
     bordercolor="#666666"
     inkscape:pageshadow="2"
     inkscape:window-width="1366"
     pagecolor="#ffffff"
     inkscape:zoom="5.9113417"
     inkscape:window-x="0"
     showgrid="false"
     borderopacity="1.0"
     inkscape:current-layer="layer1"
     inkscape:cx="44.829078"
     inkscape:cy="107.33604"
     inkscape:window-y="0"
     inkscape:window-height="703"
     inkscape:pageopacity="0.0"
     inkscape:pagecheckerboard="0"
     inkscape:window-maximized="1" />
  <g
     id="layer1"
     inkscape:label="Layer 1"
     inkscape:groupmode="layer"
     transform="translate(-230.93 -73.051)">
    <g
       id="g3940">
      <path
         style="fill:#000000"
         d="m 303.87,150.64 c 0,2.41 -4.43,4.09 -13.29,5.04 l -12.53,0.77 h -2.32 c -10.5,0 -18.5,-0.9 -24.01,-2.71 -2.67,-0.78 -4.01,-1.81 -4.01,-3.1 0,-2.5 0.69,-5.34 2.07,-8.52 0.95,-1.89 1.42,-3.23 1.42,-4 0,-1.64 -1.98,-4.82 -5.94,-9.56 -2.15,-2.49 -3.4,-4.21 -3.74,-5.16 0,-0.52 -0.26,-1.68 -0.78,-3.49 l -1.68,-6.45 c -1.11,-4.22 -1.85,-8.69 -2.19,-13.43 -3.96,-1.632 -5.94,-4.257 -5.94,-7.872 0,-3.098 1.42,-5.293 4.26,-6.584 0.95,-0.43 1.98,-0.646 3.1,-0.646 2.84,0 4.95,1.291 6.33,3.873 0.6,1.119 0.9,2.238 0.9,3.357 l -0.65,4.906 c 0,3.876 2.76,8.606 8.27,14.196 0.43,-3.52 0.64,-7.22 0.64,-11.1 0,-5.764 -1.03,-9.422 -3.1,-10.971 -0.17,-0.172 -0.34,-0.302 -0.51,-0.388 -1.55,-0.946 -2.33,-2.625 -2.33,-5.035 0,-3.184 1.47,-5.379 4.39,-6.584 0.95,-0.43 1.94,-0.645 2.97,-0.645 3.01,0 5.17,1.377 6.46,4.131 0.51,0.947 0.77,1.98 0.77,3.098 l -0.9,5.552 c 0,4.82 2.37,12.182 7.1,22.072 1.81,-8.09 2.71,-14.283 2.71,-18.587 0,-3.614 -0.65,-6.928 -1.94,-9.94 -0.51,-1.119 -0.77,-1.98 -0.77,-2.582 0,-3.185 1.42,-5.379 4.26,-6.584 0.95,-0.431 1.94,-0.646 2.97,-0.646 3.01,0 5.12,1.42 6.32,4.26 0.43,0.947 0.65,1.937 0.65,2.97 0,0.172 -0.73,2.453 -2.19,6.842 -0.35,1.119 -0.52,3.012 -0.52,5.68 0,4.304 0.9,10.497 2.71,18.587 4.65,-9.81 6.97,-17.166 6.97,-22.072 l -0.77,-5.422 v -0.13 c 0,-3.184 1.46,-5.379 4.39,-6.584 0.94,-0.43 1.93,-0.645 2.97,-0.645 3.01,0 5.16,1.377 6.45,4.131 0.52,0.947 0.77,1.98 0.77,3.098 0,2.41 -0.77,4.132 -2.32,5.164 -2.41,1.55 -3.61,5.337 -3.61,11.36 0,3.79 0.21,7.45 0.64,10.97 5.51,-5.59 8.26,-10.32 8.26,-14.196 l -0.64,-4.906 c 0,-3.012 1.38,-5.164 4.13,-6.455 0.95,-0.516 1.98,-0.775 3.1,-0.775 3.1,0 5.29,1.377 6.58,4.132 l 0.78,2.452 v 0.646 c 0,3.443 -1.98,6.068 -5.94,7.872 -0.52,5.94 -1.98,13.21 -4.39,21.82 -0.17,0.69 -0.26,1.21 -0.26,1.55 0,0.6 -0.64,1.59 -1.94,2.97 l -1.54,1.94 c -4.14,4.73 -6.2,8 -6.2,9.81 0,0.51 1.03,3.18 3.1,8 0.34,1.72 0.51,3.23 0.51,4.52"
         id="path2504" />
      <path
         style="fill:#e6e6e6"
         d="m 299.1,127.14 c 0,-2.75 -7.75,-4.13 -23.24,-4.13 -15.58,0 -23.37,1.42 -23.37,4.26 0,1.21 1.12,1.81 3.36,1.81 2.58,0 5.81,-0.21 9.68,-0.64 l 8.39,-0.26 h 2.07 c 2.41,0 6.97,0.21 13.68,0.64 l 6.33,0.26 c 2.06,0 3.1,-0.64 3.1,-1.94"
         id="path3786" />
      <path
         style="fill:#e6e6e6"
         d="m 275.86,76.795 c -1.64,0 -2.67,0.818 -3.1,2.453 -0.09,0.258 -0.13,0.516 -0.13,0.775 0,1.635 0.82,2.668 2.45,3.098 0.26,0.086 0.52,0.129 0.78,0.129 2.06,0 3.1,-1.076 3.1,-3.227 0,-1.55 -0.73,-2.582 -2.2,-3.099 -0.26,-0.086 -0.56,-0.129 -0.9,-0.129"
         id="path3784" />
      <path
         style="fill:#e6e6e6"
         d="m 313.17,88.93 c -2.07,0 -3.1,1.076 -3.1,3.228 0,2.152 1.03,3.227 3.1,3.227 2.15,0 3.23,-1.075 3.23,-3.227 0,-1.635 -0.82,-2.668 -2.46,-3.098 -0.26,-0.087 -0.51,-0.13 -0.77,-0.13"
         id="path3782" />
      <path
         style="fill:#e6e6e6"
         d="m 296.39,80.797 c -1.47,0 -2.46,0.732 -2.97,2.195 l -0.13,1.033 c 0,2.151 1.03,3.227 3.1,3.227 2.15,0 3.22,-1.076 3.22,-3.227 0,-2.152 -1.07,-3.228 -3.22,-3.228"
         id="path3780" />
      <path
         style="fill:#e6e6e6"
         d="m 255.2,80.797 c -2.24,0 -3.35,1.076 -3.35,3.228 0,2.151 1.11,3.227 3.35,3.227 2.07,0 3.1,-1.076 3.1,-3.227 0,-2.152 -1.03,-3.228 -3.1,-3.228"
         id="path3778" />
      <path
         style="fill:#e6e6e6"
         d="m 238.29,88.93 c -1.63,0 -2.67,0.818 -3.1,2.453 -0.08,0.259 -0.13,0.517 -0.13,0.775 0,1.635 0.82,2.668 2.46,3.098 0.25,0.086 0.51,0.129 0.77,0.129 2.07,0 3.1,-1.075 3.1,-3.227 0,-2.152 -1.03,-3.228 -3.1,-3.228"
         id="path3776" />
      <path
         style="fill:#e6e6e6"
         d="m 254.43,142.89 c 0,1.38 0.99,2.07 2.97,2.07 l 8.91,-0.65 c -0.01,0 2.58,-0.12 7.74,-0.38 h 1.94 l 15.1,0.77 3.1,0.26 c 1.98,0 2.97,-0.69 2.97,-2.07 0,-2.49 -5.77,-3.87 -17.3,-4.13 h -4 c -9.73,0 -16.23,0.73 -19.5,2.2 -1.29,0.51 -1.93,1.16 -1.93,1.93"
         id="path3774" />
    </g>
  </g>
  <metadata
     id="metadata2409">
    <rdf:RDF>
      <cc:Work>
        <dc:format>image/svg+xml</dc:format>
        <dc:type
           rdf:resource="http://purl.org/dc/dcmitype/StillImage" />
        <cc:license
           rdf:resource="http://creativecommons.org/licenses/publicdomain/" />
        <dc:publisher>
          <cc:Agent
             rdf:about="http://openclipart.org/">
            <dc:title>Openclipart</dc:title>
          </cc:Agent>
        </dc:publisher>
        <dc:title>Chess symbols set </dc:title>
        <dc:date>2009-04-06T07:41:21</dc:date>
        <dc:description>Chess set by Igor Krizanovskij. From old OCAL site.</dc:description>
        <dc:source>https://openclipart.org/detail/24133/chess-symbols-set--by-anonymous-24133</dc:source>
        <dc:creator>
          <cc:Agent>
            <dc:title>Anonymous</dc:title>
          </cc:Agent>
        </dc:creator>
        <dc:subject>
          <rdf:Bag>
            <rdf:li>board</rdf:li>
            <rdf:li>chess</rdf:li>
            <rdf:li>collection</rdf:li>
            <rdf:li>figure</rdf:li>
            <rdf:li>game</rdf:li>
            <rdf:li>piece</rdf:li>
            <rdf:li>play</rdf:li>
            <rdf:li>set</rdf:li>
            <rdf:li>symbol</rdf:li>
          </rdf:Bag>
        </dc:subject>
      </cc:Work>
      <cc:License
         rdf:about="http://creativecommons.org/licenses/publicdomain/">
        <cc:permits
           rdf:resource="http://creativecommons.org/ns#Reproduction" />
        <cc:permits
           rdf:resource="http://creativecommons.org/ns#Distribution" />
        <cc:permits
           rdf:resource="http://creativecommons.org/ns#DerivativeWorks" />
      </cc:License>
    </rdf:RDF>
  </metadata>
</svg>
