<?xml version="1.0" encoding="UTF-8" standalone="no"?>
<!-- Created with Inkscape (http://www.inkscape.org/) -->

<svg
   id="svg1"
   sodipodi:docname="whiteBishop.svg"
   inkscape:export-filename="C:\joanna\Gfx\drawings_vector\admin\thumbs\Igor Krizanovskij\chess_set_symbols_igor_k_01_ok.png"
   viewBox="0 0 83.399 89.466"
   sodipodi:version="0.32"
   inkscape:export-xdpi="51.457458"
   version="1.0"
   inkscape:output_extension="org.inkscape.output.svg.inkscape"
   inkscape:export-ydpi="51.457458"
   inkscape:version="1.1 (c4e8f9e, 2021-05-24)"
   xmlns:inkscape="http://www.inkscape.org/namespaces/inkscape"
   xmlns:sodipodi="http://sodipodi.sourceforge.net/DTD/sodipodi-0.dtd"
   xmlns="http://www.w3.org/2000/svg"
   xmlns:svg="http://www.w3.org/2000/svg"
   xmlns:rdf="http://www.w3.org/1999/02/22-rdf-syntax-ns#"
   xmlns:cc="http://creativecommons.org/ns#"
   xmlns:dc="http://purl.org/dc/elements/1.1/">
  <defs
     id="defs1766" />
  <sodipodi:namedview
     id="base"
     bordercolor="#666666"
     inkscape:pageshadow="2"
     inkscape:window-width="1366"
     pagecolor="#ffffff"
     inkscape:zoom="6.4046505"
     inkscape:window-x="0"
     showgrid="false"
     borderopacity="1.0"
     inkscape:current-layer="layer1"
     inkscape:cx="41.688457"
     inkscape:cy="81.737481"
     inkscape:window-y="0"
     inkscape:window-height="703"
     inkscape:pageopacity="0.0"
     inkscape:pagecheckerboard="0"
     inkscape:window-maximized="1" />
  <g
     id="layer1"
     inkscape:label="Layer 1"
     inkscape:groupmode="layer"
     transform="translate(-571.36 -212.65)">
    <g
       id="g3281">
      <path
         style="fill:#000000"
         d="m 613.06,291.66 c -3.35,3.36 -8.43,5.42 -15.23,6.2 -2.76,0.26 -7.58,0.86 -14.46,1.81 -1.81,0.34 -2.84,1.16 -3.1,2.45 -1.63,-0.43 -4.04,-3.1 -7.23,-8.01 -0.77,-1.2 -1.33,-2.02 -1.68,-2.45 2.84,-5.42 6.37,-8.13 10.59,-8.13 l 7.62,0.39 c 3.52,0 7.66,-0.82 12.39,-2.46 -6.11,-0.77 -9.17,-2.62 -9.17,-5.55 l 2.59,-9.81 v -0.26 c -5.17,-5.68 -7.75,-11.01 -7.75,-16.01 0,-5.68 2.8,-10.84 8.39,-15.49 4.91,-4.13 8.52,-6.32 10.84,-6.58 -1.89,-2.33 -2.84,-4.74 -2.84,-7.23 0,-3.96 1.98,-6.46 5.94,-7.49 0.95,-0.26 1.98,-0.39 3.1,-0.39 4.22,0 6.97,1.59 8.26,4.78 l 0.65,2.71 v 0.39 c 0,2.67 -0.9,5.08 -2.71,7.23 2.32,0.26 5.98,2.49 10.97,6.71 5.51,4.56 8.26,9.68 8.26,15.36 0,4.82 -2.58,10.16 -7.74,16.01 0,1.21 0.43,2.93 1.29,5.17 0.86,2.75 1.29,4.39 1.29,4.9 0,2.93 -3.06,4.78 -9.17,5.55 4.65,1.64 8.78,2.46 12.4,2.46 l 7.61,-0.39 c 4.22,0 7.75,2.71 10.59,8.13 l -4.39,6.72 c -1.46,1.89 -2.97,3.14 -4.52,3.74 -0.34,-1.72 -2.84,-2.8 -7.48,-3.23 0.6,0 -0.69,-0.13 -3.88,-0.39 -10.76,-1.03 -17.9,-3.31 -21.43,-6.84"
         id="path1860" />
      <path
         style="fill:#e6e6e6"
         d="m 612.8,280.43 c -0.77,0 -3.05,1.51 -6.84,4.52 -2.67,1.81 -6.97,2.88 -12.91,3.23 -4.3,0 -7.74,0.21 -10.33,0.64 -2.75,0.6 -4.13,1.77 -4.13,3.49 0.26,1.72 1.16,2.58 2.71,2.58 l 6.85,-1.03 c 4.47,0 9.16,-0.61 14.07,-1.81 5.59,-1.46 9.21,-3.79 10.84,-6.97 2.33,4.56 8.35,7.31 18.08,8.26 0,0 1.11,0.17 3.35,0.52 h 3.36 l 6.97,1.03 c 1.55,0 2.45,-0.86 2.71,-2.58 0,-1.72 -1.38,-2.89 -4.13,-3.49 l -13.81,-1.03 c -4.39,-0.35 -8.61,-2.07 -12.66,-5.17 -1.8,-1.46 -3.18,-2.19 -4.13,-2.19"
         id="path3164" />
      <path
         style="fill:#e6e6e6"
         d="m 612.93,260.42 c 9.64,0 15.54,-0.9 17.69,-2.71 1.46,-1.12 2.54,-4.09 3.23,-8.91 -0.43,-4.3 -3.23,-8.43 -8.39,-12.39 -4.82,-3.79 -9.04,-5.9 -12.66,-6.33 -3.35,0.43 -7.44,2.54 -12.26,6.33 -5.08,3.96 -7.83,8.09 -8.26,12.39 0.6,4.48 1.55,7.32 2.84,8.52 0.34,0.35 0.73,0.65 1.16,0.9 2.15,1.47 7.7,2.2 16.65,2.2"
         id="path3160" />
      <path
         style="fill:#000000"
         d="m 610.74,254.09 v -5.68 h -4.39 v -5.03 h 4.39 v -5.55 h 4.65 v 5.55 h 4.38 v 5.03 h -4.38 v 5.68 h -4.65"
         id="path3162" />
      <path
         style="fill:#e6e6e6"
         d="m 613.06,272.3 c -3.27,0 -7.49,0.3 -12.65,0.9 -1.46,0.17 -2.32,0.99 -2.58,2.45 0,1.04 2.36,1.68 7.1,1.94 -0.43,-0.09 -0.26,-0.13 0.51,-0.13 h 7.62 c 10.07,0 15.11,-0.6 15.11,-1.81 0,-1.98 -2.5,-3.05 -7.49,-3.22 h -3.75 c -1.11,0 -2.06,-0.05 -2.84,-0.13 h -1.03"
         id="path3158" />
      <path
         style="fill:#e6e6e6"
         d="m 613.06,217.43 c -1.81,0 -3.05,0.82 -3.74,2.45 -0.17,0.43 -0.26,0.86 -0.26,1.29 0,1.9 0.95,3.14 2.84,3.75 0.34,0.08 0.73,0.13 1.16,0.13 1.98,0 3.27,-0.91 3.87,-2.71 0.09,-0.35 0.13,-0.74 0.13,-1.17 0,-1.72 -0.86,-2.88 -2.58,-3.48 -0.51,-0.17 -0.99,-0.26 -1.42,-0.26"
         id="path3156" />
      <path
         style="fill:#e6e6e6"
         d="m 613.06,264.16 c -6.02,0 -10.71,-0.25 -14.07,-0.77 0.6,1.2 0.9,2.24 0.9,3.1 0,1.29 -0.25,2.36 -0.77,3.22 2.49,-0.77 7.14,-1.16 13.94,-1.16 6.8,0 11.45,0.39 13.94,1.16 -0.51,-0.86 -0.77,-1.93 -0.77,-3.22 0,-1.04 0.26,-2.07 0.77,-3.1 -4.04,0.52 -8.69,0.77 -13.94,0.77"
         id="path3154" />
    </g>
  </g>
  <metadata
     id="metadata1763">
    <rdf:RDF>
      <cc:Work>
        <dc:format>image/svg+xml</dc:format>
        <dc:type
           rdf:resource="http://purl.org/dc/dcmitype/StillImage" />
        <cc:license
           rdf:resource="http://creativecommons.org/licenses/publicdomain/" />
        <dc:publisher>
          <cc:Agent
             rdf:about="http://openclipart.org/">
            <dc:title>Openclipart</dc:title>
          </cc:Agent>
        </dc:publisher>
        <dc:title>Chess symbols set </dc:title>
        <dc:date>2009-04-06T07:41:21</dc:date>
        <dc:description>Chess set by Igor Krizanovskij. From old OCAL site.</dc:description>
        <dc:source>https://openclipart.org/detail/24129/chess-symbols-set--by-anonymous-24129</dc:source>
        <dc:creator>
          <cc:Agent>
            <dc:title>Anonymous</dc:title>
          </cc:Agent>
        </dc:creator>
        <dc:subject>
          <rdf:Bag>
            <rdf:li>board</rdf:li>
            <rdf:li>chess</rdf:li>
            <rdf:li>collection</rdf:li>
            <rdf:li>figure</rdf:li>
            <rdf:li>game</rdf:li>
            <rdf:li>piece</rdf:li>
            <rdf:li>play</rdf:li>
            <rdf:li>set</rdf:li>
            <rdf:li>symbol</rdf:li>
          </rdf:Bag>
        </dc:subject>
      </cc:Work>
      <cc:License
         rdf:about="http://creativecommons.org/licenses/publicdomain/">
        <cc:permits
           rdf:resource="http://creativecommons.org/ns#Reproduction" />
        <cc:permits
           rdf:resource="http://creativecommons.org/ns#Distribution" />
        <cc:permits
           rdf:resource="http://creativecommons.org/ns#DerivativeWorks" />
      </cc:License>
    </rdf:RDF>
  </metadata>
</svg>
